<?xml version="1.0" standalone="no"?>
<!DOCTYPE svg PUBLIC "-//W3C//DTD SVG 20010904//EN"
 "http://www.w3.org/TR/2001/REC-SVG-20010904/DTD/svg10.dtd">
<svg version="1.0" xmlns="http://www.w3.org/2000/svg"
 width="1400.000000pt" height="1400.000000pt" viewBox="0 0 1400.000000 1400.000000"
 preserveAspectRatio="xMidYMid meet">

<g transform="translate(0.000000,1400.000000) scale(0.100000,-0.100000)"
fill="#000000" stroke="none">
<path d="M5914 12714 c-126 -64 -277 -143 -336 -175 -59 -32 -109 -59 -112
-59 -2 0 -57 -29 -121 -65 -63 -36 -270 -144 -458 -241 -367 -190 -618 -330
-842 -469 -77 -48 -196 -120 -265 -160 -156 -90 -324 -190 -645 -382 -477
-286 -594 -350 -957 -523 -139 -67 -263 -128 -275 -135 -12 -8 -174 -88 -360
-178 -353 -170 -647 -325 -868 -457 -251 -150 -436 -256 -555 -319 -104 -55
-120 -67 -120 -88 0 -14 4 -23 8 -21 55 21 383 207 687 388 217 129 533 295
866 456 174 84 341 166 370 183 30 16 149 74 264 130 351 167 533 266 989 540
314 189 477 286 616 366 69 40 190 112 270 162 238 147 495 290 856 476 188
97 377 196 420 220 262 149 798 422 812 413 6 -3 29 -40 52 -83 23 -42 79
-130 124 -197 45 -67 134 -206 196 -309 l114 -188 -62 -187 c-34 -103 -67
-207 -73 -232 -6 -25 -27 -94 -46 -154 -19 -60 -54 -179 -78 -265 -23 -86 -63
-228 -89 -316 -26 -88 -65 -236 -87 -330 -51 -223 -70 -282 -81 -261 -5 9 -22
16 -38 16 -66 0 -78 -91 -19 -149 l30 -30 -81 -288 c-89 -316 -150 -518 -176
-578 l-16 -39 -13 38 c-40 116 -154 137 -248 47 -51 -47 -67 -80 -67 -135 0
-50 19 -76 55 -76 29 0 41 31 23 59 -27 44 48 131 114 131 42 0 61 -45 56
-134 -3 -72 -8 -84 -82 -223 -31 -56 -29 -88 6 -98 25 -8 25 -6 -42 -220 -62
-201 -149 -498 -240 -820 -39 -137 -87 -300 -107 -362 l-37 -112 -28 24 c-16
14 -47 30 -69 36 -42 13 -36 14 -155 -37 -10 -5 -52 62 -44 69 3 2 33 21 68
42 70 43 85 62 71 88 -15 26 -36 21 -113 -24 -82 -48 -116 -77 -116 -96 0 -23
100 -201 116 -207 20 -8 54 11 54 30 0 24 50 64 80 64 15 0 39 -9 54 -21 22
-17 26 -29 26 -68 0 -34 -6 -56 -22 -76 -20 -25 -25 -27 -72 -20 -28 3 -55 10
-60 16 -17 16 -54 10 -61 -11 -8 -26 11 -59 41 -70 14 -6 54 -10 90 -10 35 0
64 -3 64 -7 0 -10 -91 -364 -129 -503 -15 -58 -51 -177 -79 -265 -28 -88 -74
-236 -103 -330 -28 -93 -53 -172 -55 -174 -2 -2 -22 13 -46 33 -55 47 -103 62
-151 47 -110 -37 -125 -179 -34 -326 30 -48 54 -74 82 -89 22 -11 41 -21 42
-22 2 0 -19 -70 -46 -155 -90 -283 -171 -562 -216 -749 -25 -102 -66 -270 -91
-375 -25 -104 -49 -199 -53 -210 -7 -16 -13 -8 -39 47 -18 36 -32 82 -32 101
0 39 -23 70 -49 65 -8 -2 -24 5 -33 14 -57 57 -182 -39 -202 -154 -8 -44 13
-101 42 -117 27 -14 87 -14 115 0 12 6 36 25 54 41 l31 30 21 -40 c11 -22 29
-62 39 -90 l20 -51 -30 -123 c-43 -181 -56 -259 -51 -296 9 -60 77 -87 523
-212 309 -87 815 -232 925 -265 44 -13 154 -46 245 -74 91 -27 252 -75 359
-105 107 -31 196 -58 198 -60 4 -4 -107 -69 -337 -198 -245 -138 -302 -169
-525 -283 -126 -65 -273 -144 -325 -175 -52 -32 -120 -70 -150 -85 -30 -15
-149 -82 -265 -149 -408 -238 -586 -332 -682 -360 -26 -8 -66 37 -146 169 -30
50 -89 146 -132 215 -43 69 -112 181 -153 250 -41 69 -112 184 -157 255 -103
163 -276 470 -440 785 -92 175 -311 587 -420 790 -40 74 -92 173 -115 220 -43
86 -120 222 -285 500 -154 260 -201 342 -240 420 -45 91 -188 353 -300 550
-73 128 -196 354 -293 535 -18 33 -118 233 -224 445 -223 449 -567 1071 -772
1400 -75 119 -130 215 -234 405 -33 61 -98 180 -146 265 l-86 154 0 -50 c0
-40 8 -63 41 -119 23 -39 93 -164 156 -280 63 -115 154 -273 201 -350 91 -149
222 -373 305 -520 27 -49 98 -175 157 -280 103 -182 379 -720 429 -835 37 -83
249 -479 416 -775 136 -241 209 -373 294 -536 39 -76 114 -211 167 -300 249
-422 303 -516 394 -689 53 -102 146 -277 205 -390 59 -113 145 -272 190 -355
45 -82 102 -188 125 -235 42 -85 166 -313 288 -530 35 -63 117 -200 181 -303
64 -104 154 -250 200 -325 254 -415 306 -494 341 -520 l29 -22 63 24 c138 53
285 131 673 358 99 57 220 126 268 152 48 26 118 65 154 87 37 23 168 93 292
157 231 118 359 187 651 352 91 52 192 108 225 125 l60 32 125 -37 c69 -20
204 -60 300 -89 96 -28 261 -77 365 -107 105 -30 323 -100 485 -155 162 -54
354 -115 425 -135 72 -19 195 -53 275 -74 156 -43 310 -89 570 -170 91 -29
210 -65 265 -80 55 -15 161 -46 235 -69 280 -86 330 -101 515 -151 180 -48
294 -81 570 -166 225 -68 370 -104 447 -111 l76 -6 55 109 c167 337 380 1013
552 1757 19 81 69 258 111 395 42 136 91 299 109 362 17 63 52 174 77 245 25
72 69 207 98 300 28 94 127 402 220 685 93 283 178 551 190 595 12 44 41 139
65 210 24 72 69 211 100 310 31 99 97 303 147 454 49 151 106 333 128 405 21
72 58 194 83 271 25 77 92 289 151 470 101 317 241 827 306 1121 17 76 56 236
85 354 30 118 65 278 80 355 14 77 36 178 50 225 13 47 26 97 29 113 7 30 15
25 -107 71 -68 26 -100 36 -572 181 -345 106 -591 183 -850 265 -264 84 -551
163 -815 225 -107 25 -224 54 -260 65 -36 10 -225 59 -420 109 -369 93 -621
161 -775 210 -49 16 -115 36 -145 45 -180 51 -288 85 -575 179 -176 58 -405
136 -510 173 -392 137 -675 224 -1050 319 -211 54 -366 97 -560 153 -446 129
-468 133 -482 108 -6 -10 -33 27 -93 127 -46 78 -132 214 -191 302 -58 88
-118 183 -134 210 -49 88 -77 125 -95 125 -9 0 -120 -52 -246 -116z m836 -699
c-1 -6 -8 -21 -15 -34 l-12 -25 -12 23 c-17 32 -6 62 20 52 11 -4 20 -11 19
-16z m-61 -182 c-11 -38 -40 -135 -64 -218 -25 -82 -80 -271 -124 -420 -231
-789 -265 -905 -272 -905 -29 0 15 221 107 535 25 88 71 248 100 355 30 107
63 222 74 255 11 33 35 114 54 180 19 66 51 166 72 223 37 101 39 103 55 83
16 -20 16 -25 -2 -88z m351 -53 c19 -5 139 -40 265 -78 127 -38 302 -91 390
-117 88 -26 201 -60 250 -75 91 -29 358 -109 585 -175 69 -21 197 -59 285 -86
88 -26 198 -59 245 -73 100 -29 547 -163 705 -211 61 -18 173 -52 250 -75 77
-23 229 -68 338 -101 301 -90 574 -171 767 -229 96 -28 193 -57 215 -65 22 -7
112 -34 200 -60 88 -26 194 -57 235 -70 41 -13 221 -67 400 -120 179 -53 375
-112 435 -130 61 -19 263 -80 449 -135 187 -56 353 -108 368 -116 16 -8 36
-30 45 -49 22 -45 13 -89 -66 -357 -51 -172 -222 -760 -348 -1193 -163 -564
-338 -1164 -358 -1230 -13 -44 -103 -352 -200 -685 -247 -847 -258 -886 -310
-1065 -48 -162 -93 -317 -139 -480 -14 -49 -35 -119 -45 -155 -37 -120 -148
-500 -356 -1220 -101 -347 -160 -551 -245 -840 -40 -135 -96 -330 -126 -435
-30 -104 -65 -225 -78 -270 -14 -44 -43 -145 -67 -225 -50 -173 -60 -195 -99
-215 -44 -23 -100 -18 -228 19 -243 72 -831 245 -932 276 -58 18 -136 41 -175
52 -38 10 -119 34 -180 53 -60 18 -175 52 -255 75 -80 23 -233 68 -340 100
-107 32 -289 86 -405 120 -115 34 -259 77 -320 95 -60 19 -243 73 -405 120
-162 48 -333 98 -380 112 -47 14 -128 38 -180 53 -165 48 -842 249 -1400 415
-124 37 -277 82 -340 100 -63 18 -178 52 -255 75 -77 23 -176 52 -220 65 -44
14 -156 47 -250 75 -93 28 -200 57 -238 66 -81 19 -107 48 -107 115 0 25 33
153 76 299 123 414 160 537 204 690 23 80 50 172 60 205 42 137 83 276 370
1250 166 561 337 1142 382 1290 74 250 103 349 193 655 36 125 71 241 115 390
15 52 98 331 183 620 85 289 185 626 222 750 37 124 84 284 105 355 90 309
215 731 255 865 48 157 131 441 196 665 48 168 78 255 92 273 17 21 80 51 107
51 14 0 41 -4 60 -9z m4795 -1220 c192 -52 600 -179 593 -185 -2 -2 -62 14
-133 36 -72 22 -247 73 -390 115 -143 41 -269 79 -280 85 l-20 9 20 -4 c11 -3
106 -28 210 -56z m-5701 -614 c-42 -143 -87 -295 -99 -336 -61 -205 -159 -542
-175 -600 -16 -57 -39 -90 -61 -90 -8 0 35 141 111 363 27 81 73 229 101 330
106 378 139 488 155 512 10 15 14 36 11 52 -3 15 0 38 5 52 l10 26 9 -24 c7
-18 -9 -84 -67 -285z m-4 274 c0 -7 -53 -31 -57 -26 -2 2 -1 10 2 18 6 14 55
21 55 8z m7610 -271 c0 -12 -9 -52 -19 -88 -11 -36 -32 -129 -46 -206 -15 -77
-51 -239 -81 -360 -30 -121 -68 -280 -85 -355 -37 -168 -179 -716 -226 -870
-19 -63 -65 -209 -103 -325 -37 -115 -100 -313 -140 -440 -81 -260 -343 -1081
-445 -1395 -24 -74 -56 -178 -70 -230 -14 -52 -97 -311 -185 -575 -87 -264
-168 -514 -180 -555 -58 -201 -197 -611 -175 -515 5 21 59 208 100 340 13 44
61 204 105 355 100 342 124 424 200 680 34 113 77 259 96 325 41 139 76 257
110 370 41 137 85 287 109 370 13 44 58 197 100 340 42 143 90 303 105 355 16
52 40 136 55 185 209 707 270 916 343 1165 22 74 81 275 132 445 50 171 116
393 146 495 30 102 73 245 95 319 23 75 39 147 37 163 -3 19 0 28 9 28 7 0 13
-10 13 -21z m-7947 -1161 c-16 -57 -123 -420 -205 -693 -27 -93 -66 -224 -85
-290 -65 -227 -185 -635 -349 -1190 -52 -176 -115 -390 -140 -475 -98 -334
-155 -525 -158 -528 -2 -2 -8 11 -14 27 -9 26 -4 52 34 173 25 79 63 204 85
278 22 74 51 165 64 201 24 67 108 376 166 614 18 72 43 153 56 182 12 28 23
68 23 88 0 20 18 91 39 158 49 150 119 391 176 597 43 157 89 314 150 515 118
387 111 370 150 385 11 5 21 9 21 9 1 1 -5 -23 -13 -51z m-1088 -3079 c65 -58
70 -76 40 -174 -15 -47 -29 -85 -33 -85 -20 0 -54 36 -82 85 -40 70 -52 156
-25 185 26 29 59 25 100 -11z m81 -225 c-8 -21 -15 -31 -15 -22 -1 21 18 72
24 66 3 -3 -1 -22 -9 -44z m-6 -130 c0 -7 -73 -259 -240 -824 -73 -245 -149
-506 -170 -580 -55 -191 -49 -129 9 106 27 110 62 253 76 319 15 66 52 206 82
310 30 105 68 237 84 295 16 58 50 167 75 243 38 113 49 137 65 137 10 0 19
-3 19 -6z m-644 -1337 c-8 -41 -41 -91 -70 -106 -64 -35 -80 43 -21 107 29 33
39 38 66 34 29 -4 31 -7 25 -35z m7811 -129 c-3 -8 -6 -5 -6 6 -1 11 2 17 5
13 3 -3 4 -12 1 -19z m-32 -120 c-15 -51 -31 -100 -36 -108 -8 -12 -9 -11 -5
5 17 67 60 204 64 201 2 -3 -8 -46 -23 -98z m-278 -1008 c-93 -372 -190 -689
-326 -1067 -36 -100 -67 -180 -69 -178 -2 2 14 61 36 132 22 70 72 238 112
373 39 135 100 340 134 455 35 116 94 317 132 448 38 130 70 231 72 225 1 -7
-40 -182 -91 -388z"/>
<path d="M7350 11380 c-36 -27 -136 -98 -223 -157 -246 -166 -210 -109 -332
-528 -58 -198 -112 -380 -119 -405 -38 -125 -74 -246 -171 -575 -58 -198 -119
-403 -134 -455 -16 -52 -61 -205 -101 -340 -39 -135 -75 -256 -80 -270 -5 -14
-50 -167 -100 -340 -51 -173 -108 -367 -127 -430 -19 -63 -46 -153 -59 -200
-57 -195 -151 -513 -229 -775 -46 -154 -109 -368 -140 -475 -31 -107 -79 -267
-106 -355 -26 -88 -57 -191 -68 -230 -10 -38 -45 -155 -76 -260 -31 -104 -74
-248 -95 -320 -72 -246 -232 -790 -295 -1000 -35 -115 -71 -238 -80 -272 l-17
-62 35 -63 c54 -97 125 -219 130 -224 2 -3 -11 34 -30 81 -62 156 -55 321 22
481 51 105 171 226 275 277 41 20 102 44 135 52 74 19 223 19 292 1 128 -34
245 -111 319 -210 60 -79 89 -146 110 -253 30 -149 -1 -292 -95 -435 -77 -119
-190 -203 -341 -254 -77 -27 -272 -27 -350 0 -120 40 -221 112 -305 216 -23
30 -25 30 -9 5 10 -16 44 -73 76 -126 l59 -97 72 -20 c40 -11 189 -55 332 -97
143 -43 341 -101 440 -130 390 -115 740 -218 945 -280 118 -35 294 -87 390
-115 240 -71 335 -99 550 -163 102 -30 250 -74 330 -97 80 -23 233 -68 340
-100 476 -142 1392 -413 1470 -435 25 -7 145 -42 266 -79 122 -36 229 -66 239
-66 15 0 160 80 355 196 30 18 72 42 92 53 44 25 88 67 88 84 0 7 25 98 56
202 30 105 73 251 94 325 22 74 78 268 126 430 47 162 97 333 110 380 82 281
265 909 657 2255 135 462 270 926 300 1030 31 105 72 246 92 315 20 69 63 217
96 330 32 113 84 288 114 390 54 184 116 397 302 1038 91 315 96 336 84 369
-12 31 -194 411 -269 561 -15 29 -34 59 -42 66 -8 7 -58 25 -110 40 -52 16
-122 36 -155 47 -33 10 -130 39 -215 64 -85 25 -191 57 -235 70 -104 32 -410
123 -920 275 -225 67 -549 164 -720 216 -390 117 -1553 465 -1785 534 -96 28
-202 60 -235 70 -90 28 -716 216 -852 256 -45 13 -87 26 -95 28 -7 3 -42 -18
-78 -44z m211 -226 c42 -19 132 -52 200 -74 218 -70 308 -136 379 -274 70
-139 29 -269 -122 -383 l-28 -21 31 -60 c36 -69 49 -170 30 -239 -16 -60 -89
-136 -169 -175 -60 -30 -77 -33 -172 -36 -84 -3 -134 1 -241 22 -242 47 -321
75 -376 135 -27 28 -29 63 -9 129 8 26 31 128 51 227 36 176 131 580 160 681
23 80 79 118 155 107 19 -3 69 -20 111 -39z m1278 -395 c47 -44 48 -40 -124
-544 -56 -165 -115 -340 -130 -390 -35 -116 -49 -141 -86 -160 -59 -31 -130
11 -132 77 0 33 70 255 183 578 34 96 78 227 97 290 45 147 77 184 150 172 12
-2 31 -13 42 -23z m550 -166 c24 -22 37 -53 65 -148 19 -66 58 -181 87 -255
46 -121 101 -267 163 -432 11 -32 23 -58 26 -58 3 0 22 60 43 133 62 215 165
530 182 554 20 29 78 40 112 22 27 -15 53 -57 53 -88 0 -10 -20 -79 -44 -153
-25 -73 -57 -173 -71 -223 -14 -49 -38 -128 -52 -175 -28 -96 -49 -171 -87
-315 -33 -123 -43 -143 -81 -167 -65 -39 -139 -10 -150 60 -12 78 -39 162
-102 322 -36 91 -75 194 -88 230 -56 159 -110 292 -113 274 -2 -10 -28 -120
-58 -244 -30 -124 -61 -258 -69 -297 -8 -40 -22 -89 -31 -108 -44 -93 -148
-102 -184 -16 -10 25 -9 39 4 78 9 27 39 147 67 268 29 121 67 285 86 365 19
80 46 192 59 250 19 82 30 110 50 128 37 32 95 30 133 -5z m1751 -490 c99 -32
133 -55 179 -117 56 -74 79 -125 91 -201 13 -83 1 -129 -40 -150 -42 -22 -74
-18 -108 10 -24 20 -31 36 -37 81 -16 132 -65 182 -205 213 -62 14 -134 -4
-230 -57 -205 -112 -290 -221 -290 -373 0 -102 83 -263 164 -318 110 -75 174
-93 299 -84 l78 6 15 36 c44 101 75 183 71 187 -2 2 -55 22 -118 43 -69 25
-121 48 -131 62 -25 29 -23 94 2 119 45 45 100 38 305 -40 184 -70 203 -99
145 -222 -16 -35 -56 -123 -88 -197 -38 -89 -66 -141 -83 -153 -37 -28 -231
-45 -333 -29 -90 13 -145 36 -252 106 -159 103 -264 298 -264 490 0 87 19 155
72 257 50 98 117 160 264 247 210 125 317 143 494 84z m-4125 -384 c77 -22
199 -58 272 -80 72 -21 140 -40 150 -42 10 -2 25 -7 33 -10 8 -3 134 -40 280
-82 286 -83 488 -142 615 -180 44 -13 184 -54 310 -90 520 -151 641 -186 870
-253 132 -38 436 -127 675 -196 239 -70 471 -138 515 -151 44 -13 431 -126
860 -250 429 -124 800 -236 825 -248 32 -15 51 -33 64 -61 17 -36 18 -43 5
-79 -17 -49 -51 -76 -104 -83 l-40 -5 32 15 c49 23 53 69 9 106 -27 22 -20 40
14 34 22 -5 31 -2 36 10 9 23 2 28 -50 33 l-44 5 -11 -38 c-15 -54 -14 -59 14
-72 14 -6 25 -17 25 -23 0 -7 -9 -9 -25 -5 -14 3 -36 9 -50 12 -32 8 -35 -20
-4 -36 50 -28 -2 -17 -192 39 -112 33 -314 92 -449 131 -135 39 -351 102 -480
140 -129 37 -338 98 -465 135 -126 36 -273 79 -325 95 -52 16 -120 35 -150 43
-30 8 -138 40 -240 70 -208 62 -621 183 -690 202 -25 7 -130 37 -235 68 -104
31 -260 76 -345 100 -85 25 -234 68 -330 96 -96 28 -200 58 -230 67 -30 9 -82
24 -115 34 -33 11 -163 49 -290 86 -972 281 -954 275 -986 307 -23 23 -29 37
-29 73 0 56 12 79 53 104 44 27 63 26 222 -21z m5422 -23 c29 -8 67 -23 86
-34 66 -42 200 -201 231 -275 36 -87 38 -399 3 -493 -21 -56 -92 -170 -136
-218 -47 -50 -167 -129 -237 -155 -76 -29 -195 -29 -249 0 -22 11 -83 43 -135
69 -146 75 -272 212 -301 325 -34 133 23 331 162 565 64 109 171 194 282 225
62 18 214 13 294 -9z m-5425 -320 c120 -26 212 -76 297 -164 86 -88 122 -151
153 -273 77 -306 -121 -627 -448 -725 -93 -28 -238 -24 -340 9 -359 118 -510
527 -317 856 132 226 405 349 655 297z m1308 -377 c90 -29 147 -60 203 -109
130 -115 207 -280 207 -444 -1 -149 -73 -319 -181 -427 -199 -200 -511 -243
-744 -104 -289 174 -370 551 -177 835 93 138 251 240 415 270 75 13 203 4 277
-21z m1230 -367 c103 -36 164 -74 235 -146 112 -114 166 -243 168 -403 4 -475
-544 -781 -940 -524 -259 168 -338 505 -184 784 77 139 230 254 401 302 74 20
244 14 320 -13z m1214 -352 c108 -27 190 -74 267 -150 103 -102 151 -201 169
-349 48 -379 -312 -726 -694 -670 -149 22 -257 79 -356 187 -213 232 -199 585
32 814 160 159 375 221 582 168z m-4078 -161 c88 -27 128 -48 192 -99 29 -22
58 -38 64 -34 7 4 8 3 4 -5 -4 -6 7 -29 27 -52 86 -100 128 -222 128 -371 0
-81 -4 -110 -28 -180 -68 -195 -214 -339 -408 -401 -101 -32 -282 -31 -375 2
-167 60 -306 199 -364 366 -24 68 -32 218 -17 297 44 223 219 412 446 479 88
26 243 25 331 -2z m5347 -223 c354 -112 513 -485 351 -824 -28 -59 -55 -96
-118 -158 -116 -115 -215 -164 -373 -184 -386 -49 -714 302 -639 683 48 242
239 438 481 493 73 17 229 11 298 -10z m-4048 -155 c232 -93 369 -297 368
-546 -2 -316 -257 -582 -579 -602 -262 -17 -491 127 -589 369 -27 67 -29 83
-29 198 -1 146 13 199 77 308 69 117 163 204 280 257 97 45 154 55 277 52 102
-3 124 -7 195 -36z m1170 -348 c174 -43 332 -192 397 -373 33 -93 33 -275 -1
-370 -105 -300 -417 -482 -715 -416 -459 103 -615 653 -281 992 162 164 373
223 600 167z m1310 -381 c138 -57 240 -150 305 -279 48 -96 63 -173 57 -288
-9 -157 -55 -267 -160 -380 -191 -206 -477 -261 -727 -139 -134 66 -257 215
-295 359 -34 128 -15 312 44 420 61 113 107 167 197 231 122 87 216 115 379
111 109 -3 128 -6 200 -35z m-4095 -98 c220 -74 375 -272 396 -506 21 -237
-112 -471 -333 -586 -111 -58 -193 -75 -318 -69 -391 20 -645 392 -520 763 68
204 233 355 445 409 77 20 258 14 330 -11z m5258 -256 c81 -15 206 -82 267
-143 107 -107 157 -207 176 -352 10 -75 9 -100 -5 -171 -53 -261 -235 -445
-495 -499 -288 -59 -577 106 -673 385 -19 55 -23 87 -23 182 1 99 4 126 28
194 41 116 111 213 212 291 146 114 316 151 513 113z m-4053 -93 c217 -55 385
-227 430 -440 42 -201 -13 -387 -163 -546 -41 -43 -78 -79 -83 -79 -4 0 -29
-13 -55 -30 -90 -56 -165 -75 -304 -75 -144 0 -200 14 -299 72 -165 98 -257
240 -283 437 -25 191 63 404 219 532 65 53 180 111 257 130 72 17 211 17 281
-1z m1240 -372 c192 -47 352 -207 410 -408 24 -80 24 -222 1 -300 -79 -268
-299 -447 -570 -462 -336 -19 -615 239 -616 569 0 107 15 168 65 273 71 148
190 253 356 316 100 38 231 43 354 12z m1245 -358 c77 -20 188 -78 235 -122
135 -127 199 -267 199 -438 0 -471 -526 -771 -929 -528 -125 75 -223 212 -261
363 -35 139 1 332 85 458 85 129 230 232 376 268 70 17 229 17 295 -1z m-4097
-124 c119 -31 183 -67 268 -151 91 -90 142 -184 166 -309 37 -185 -27 -385
-169 -529 -225 -230 -596 -248 -832 -41 -91 80 -160 202 -185 327 -51 251 95
537 333 652 145 70 279 86 419 51z m5348 -257 c66 -20 166 -69 197 -97 12 -11
22 -17 22 -13 0 4 25 -21 56 -56 267 -303 171 -764 -196 -941 -182 -88 -349
-90 -526 -8 -204 96 -328 292 -328 521 0 279 188 520 464 594 76 20 242 20
311 0z m-4116 -99 c220 -46 388 -209 445 -431 45 -175 4 -358 -112 -506 -143
-183 -374 -274 -593 -235 -218 39 -387 189 -461 407 -25 74 -25 241 0 325 79
265 320 449 596 454 30 0 87 -6 125 -14z m1244 -370 c161 -38 316 -162 386
-309 46 -99 59 -165 53 -287 -6 -125 -39 -221 -111 -322 -64 -89 -125 -140
-232 -193 -110 -54 -179 -68 -310 -61 -190 10 -342 94 -449 250 -61 90 -87
171 -93 292 -6 119 9 192 64 305 45 93 166 218 260 268 127 67 295 89 432 57z
m1253 -364 c104 -27 185 -70 257 -137 219 -202 247 -526 67 -778 -118 -166
-298 -256 -509 -256 -156 0 -286 51 -394 153 -233 220 -244 592 -25 828 161
174 387 245 604 190z m1238 -377 c200 -46 368 -204 427 -399 24 -82 24 -248
-1 -330 -50 -163 -158 -295 -306 -374 -229 -122 -503 -89 -699 84 -53 46 -129
171 -153 249 -16 51 -22 96 -22 161 0 113 15 178 67 284 120 248 417 389 687
325z m-4025 -70 c229 -59 393 -236 434 -468 22 -123 4 -236 -60 -365 -102
-207 -319 -340 -556 -341 -99 0 -164 15 -261 62 -236 112 -363 377 -307 641
46 220 231 411 455 471 73 20 221 20 295 0z m1240 -371 c194 -48 359 -216 410
-418 21 -83 19 -215 -4 -297 -90 -315 -409 -509 -726 -443 -209 44 -386 212
-440 421 -45 174 4 384 122 527 162 195 392 271 638 210z m1249 -360 c197 -49
357 -210 412 -416 19 -70 18 -215 -2 -291 -29 -111 -72 -184 -164 -276 -141
-141 -287 -198 -476 -186 -237 14 -427 154 -512 376 -30 80 -41 232 -22 318
76 348 419 561 764 475z m1240 -380 c135 -33 278 -135 344 -246 61 -101 85
-188 86 -307 0 -116 -16 -185 -64 -279 -39 -76 -110 -164 -168 -206 -319 -237
-745 -147 -912 192 -158 320 20 717 375 838 102 34 222 37 339 8z"/>
<path d="M7427 10830 c-21 -88 -40 -167 -44 -175 -12 -34 199 -99 363 -111
103 -8 126 0 194 65 46 43 50 71 21 129 -36 69 -105 113 -254 161 -53 17 -102
31 -107 31 -5 0 -38 14 -72 30 -34 17 -62 30 -62 30 -1 0 -18 -72 -39 -160z"/>
<path d="M7311 10317 c-13 -67 -25 -131 -28 -143 -4 -19 3 -23 61 -38 131 -33
273 -56 341 -56 182 1 241 113 122 233 -32 31 -44 36 -104 42 -77 7 -270 51
-320 71 -18 8 -36 14 -40 14 -4 0 -19 -55 -32 -123z"/>
<path d="M6923 9680 c-34 -14 -29 -40 7 -40 l30 0 -20 -40 c-24 -47 -26 -80
-4 -80 16 0 60 89 71 142 5 26 4 28 -28 27 -19 0 -44 -4 -56 -9z"/>
<path d="M7230 9601 c-26 -4 -35 -11 -35 -26 0 -17 6 -20 37 -17 l38 4 -20
-44 c-24 -54 -26 -91 -4 -86 19 4 79 141 71 163 -7 15 -26 17 -87 6z"/>
<path d="M7047 9573 c-17 -17 -3 -31 44 -41 73 -17 101 -16 97 5 -4 24 -123
54 -141 36z"/>
<path d="M7341 9551 c-27 -38 -27 -41 11 -74 l33 -28 -37 6 c-43 7 -61 -11
-33 -32 23 -16 77 -17 93 -1 20 20 14 57 -13 83 -30 27 -18 41 20 23 20 -9 28
-9 38 1 9 10 7 16 -12 32 -35 29 -76 25 -100 -10z"/>
<path d="M8133 9336 c-57 -29 -70 -43 -55 -58 9 -9 18 -9 38 1 15 6 28 10 30
8 2 -2 -3 -23 -11 -47 -19 -54 -19 -80 0 -80 16 0 40 49 59 125 21 80 12 88
-61 51z"/>
<path d="M8231 9301 c-31 -31 -43 -88 -26 -121 18 -34 38 -43 70 -28 46 21 44
77 -3 103 -15 8 -21 14 -14 15 6 0 14 -1 15 -2 2 -2 11 3 21 11 12 10 14 17 5
27 -16 20 -46 17 -68 -5z m29 -102 c0 -5 -4 -9 -10 -9 -5 0 -10 7 -10 16 0 8
5 12 10 9 6 -3 10 -10 10 -16z"/>
<path d="M8504 9236 c-22 -17 -12 -32 26 -39 25 -4 25 -4 3 -12 -27 -9 -30
-30 -7 -43 24 -13 7 -34 -19 -26 -12 4 -25 11 -28 17 -10 14 -39 1 -39 -17 0
-17 49 -46 78 -46 40 0 62 31 68 97 5 54 3 63 -15 72 -27 15 -43 14 -67 -3z"/>
<path d="M8364 9185 c-9 -23 3 -33 46 -33 43 -1 66 22 39 39 -23 14 -79 11
-85 -6z"/>
<path d="M8627 9172 c-19 -20 -37 -66 -37 -92 0 -48 73 -67 111 -29 24 24 22
70 -6 113 -20 30 -45 33 -68 8z m43 -51 c12 -23 3 -51 -15 -51 -21 0 -26 16
-14 44 15 31 15 31 29 7z"/>
<path d="M9376 8967 c-12 -9 -17 -20 -13 -30 5 -14 11 -15 33 -7 33 13 43 6
15 -10 -25 -13 -27 -36 -5 -48 12 -7 13 -11 5 -17 -7 -4 -21 1 -31 10 -19 17
-50 15 -50 -4 0 -16 51 -51 75 -51 33 0 59 34 50 67 -5 23 -4 26 6 16 7 -7 21
-13 31 -13 22 0 22 -1 1 -45 -13 -27 -14 -38 -5 -47 17 -17 35 4 67 81 32 77
24 94 -30 68 -48 -23 -53 -22 -57 11 -3 23 -8 27 -38 30 -19 2 -44 -3 -54 -11z"/>
<path d="M9825 8840 c-4 -6 -24 -22 -46 -36 -48 -30 -49 -49 -4 -64 24 -8 35
-18 35 -32 0 -13 6 -18 17 -16 11 2 21 21 29 58 19 80 18 100 -5 100 -11 0
-23 -5 -26 -10z"/>
<path d="M9614 8829 c-9 -15 5 -26 48 -33 43 -8 61 10 33 31 -23 16 -71 17
-81 2z"/>
<path d="M9897 8813 c-9 -9 -9 -65 1 -79 4 -6 14 -14 22 -17 8 -3 0 -6 -18 -6
-26 -1 -33 -5 -30 -18 3 -14 14 -18 53 -18 44 0 50 3 53 22 2 14 -7 32 -22 48
-34 34 -33 39 9 32 38 -6 53 6 35 28 -13 15 -91 21 -103 8z"/>
<path d="M10697 8604 c-3 -4 -30 -14 -59 -24 -40 -13 -54 -22 -56 -39 -3 -17
5 -25 32 -36 25 -11 36 -22 36 -36 0 -14 5 -19 17 -17 18 3 77 134 67 149 -6
10 -28 12 -37 3z"/>
<path d="M10753 8548 c-21 -22 -43 -68 -43 -89 0 -16 39 -49 59 -49 22 0 51
25 51 44 0 7 -10 22 -21 35 -22 24 -18 37 16 43 32 5 24 33 -10 36 -22 2 -37
-4 -52 -20z"/>
<path d="M11038 8474 c-71 -38 -61 -144 13 -144 14 0 30 5 37 12 9 9 12 8 12
-4 0 -27 26 -40 65 -32 47 8 65 28 65 68 0 36 -33 86 -56 86 -8 0 -19 -10 -24
-22 -5 -13 -18 -34 -29 -48 -17 -20 -21 -22 -21 -7 0 9 -9 26 -20 37 l-20 20
24 0 c27 0 40 22 23 39 -15 15 -36 13 -69 -5z m18 -101 c-7 -7 -26 7 -26 19 0
6 6 6 15 -2 9 -7 13 -15 11 -17z m134 2 c0 -16 -27 -32 -37 -21 -7 7 16 36 28
36 5 0 9 -7 9 -15z"/>
<path d="M10857 8463 c-12 -19 11 -34 44 -31 48 4 46 32 -3 36 -20 2 -39 -1
-41 -5z"/>
<path d="M11838 8258 c-28 -10 -58 -60 -58 -100 0 -32 34 -68 64 -68 13 0 34
8 46 18 29 23 20 56 -22 82 -19 11 -26 20 -18 25 6 4 20 -1 31 -11 27 -24 47
-5 32 29 -13 29 -38 37 -75 25z m22 -112 c0 -11 -19 -15 -25 -6 -3 5 1 10 9
10 9 0 16 -2 16 -4z"/>
<path d="M11956 8211 c-36 -7 -46 -30 -17 -38 25 -6 25 -10 6 -43 -19 -32 -19
-70 -1 -70 17 0 90 136 81 150 -7 11 -24 11 -69 1z"/>
<path d="M12211 8136 c-12 -14 -9 -18 18 -29 l30 -13 -25 -36 c-25 -35 -26
-59 -1 -57 13 0 87 92 87 108 0 29 -89 52 -109 27z"/>
<path d="M12066 8115 c-7 -18 35 -41 58 -32 24 9 19 34 -6 41 -35 9 -45 7 -52
-9z"/>
<path d="M12185 9518 c-46 -17 -112 -65 -138 -101 -75 -101 -167 -324 -167
-405 0 -99 74 -183 238 -266 130 -67 157 -69 245 -24 79 41 154 116 192 192
25 51 30 76 36 165 7 116 -3 217 -25 259 -28 53 -125 149 -168 167 -53 21
-173 29 -213 13z"/>
<path d="M6685 9081 c-89 -40 -164 -159 -186 -294 -8 -49 -7 -65 8 -95 23 -46
59 -72 111 -79 51 -7 119 17 152 52 27 29 37 98 21 148 -15 43 -81 105 -121
114 -38 7 -38 18 1 54 56 53 103 51 117 -3 7 -28 13 -33 38 -33 25 0 29 4 32
32 6 62 -49 123 -110 123 -13 0 -41 -9 -63 -19z m-15 -237 c30 -18 60 -62 60
-88 0 -31 -46 -66 -86 -66 -66 0 -87 39 -64 119 15 53 41 63 90 35z"/>
<path d="M7005 8995 c-45 -16 -67 -41 -63 -70 4 -26 41 -31 70 -11 33 23 110
21 132 -3 39 -43 -8 -91 -102 -106 -59 -10 -67 -14 -70 -35 -5 -29 21 -50 59
-50 29 0 73 -30 89 -61 13 -23 -10 -73 -39 -89 -40 -21 -76 -11 -130 35 -29
25 -58 45 -66 45 -20 0 -37 -27 -30 -49 10 -33 91 -97 139 -111 56 -15 98 -6
142 32 70 61 82 126 37 191 l-27 39 27 20 c30 22 67 86 67 115 0 34 -40 84
-83 103 -50 23 -97 24 -152 5z"/>
<path d="M7873 8699 c-39 -14 -147 -191 -141 -232 3 -20 11 -23 75 -27 70 -5
120 -27 130 -57 5 -14 -47 -71 -67 -74 -39 -4 -62 3 -94 32 -29 25 -38 28 -56
19 -28 -15 -25 -43 10 -78 85 -85 222 -57 272 55 19 43 19 45 1 81 -19 39 -70
79 -112 88 -64 13 -64 15 -26 72 l36 53 32 -20 c50 -30 124 -46 143 -31 30 26
13 54 -45 72 -29 10 -59 22 -66 28 -22 18 -69 28 -92 19z"/>
<path d="M8191 8543 c-59 -80 -100 -177 -84 -202 11 -16 26 -17 96 -5 22 4 50
1 67 -6 41 -17 83 -75 76 -104 -7 -29 -73 -75 -117 -82 -30 -5 -36 -2 -53 26
-10 17 -19 50 -20 73 -1 40 -3 42 -31 42 -36 0 -51 -33 -41 -88 9 -46 63 -119
99 -131 60 -21 194 51 233 126 22 43 11 87 -37 142 -48 54 -67 66 -131 80
l-46 11 34 52 35 51 83 -39 c46 -21 86 -39 89 -39 15 0 35 32 30 50 -6 21
-178 110 -214 110 -10 0 -39 -28 -68 -67z"/>
<path d="M9205 8320 c-31 -12 -67 -56 -63 -76 6 -34 32 -38 72 -10 21 14 46
26 55 26 28 0 59 -29 66 -60 16 -74 -111 -205 -280 -290 -21 -11 -29 -21 -27
-35 6 -34 -12 -30 338 -82 37 -6 64 19 48 45 -12 19 -120 50 -176 51 -47 1
-48 13 -4 40 64 40 157 156 175 219 14 46 -5 100 -49 144 -34 34 -43 38 -86
37 -27 0 -58 -4 -69 -9z"/>
<path d="M9630 8197 c-53 -17 -101 -73 -135 -157 -40 -101 -44 -182 -13 -232
31 -49 94 -98 128 -98 49 0 155 94 184 163 21 51 38 187 27 223 -14 50 -41 84
-79 99 -40 17 -63 17 -112 2z m105 -93 c14 -22 16 -39 11 -88 -12 -104 -24
-135 -73 -182 -51 -50 -71 -54 -100 -21 -51 56 -52 86 -7 198 37 92 64 117
125 118 18 1 32 -7 44 -25z"/>
<path d="M10425 7974 c-22 -14 -83 -68 -135 -119 -52 -51 -121 -109 -153 -129
-63 -41 -77 -61 -56 -80 13 -12 139 -53 212 -70 21 -5 27 -11 23 -24 -18 -60
-27 -114 -22 -127 8 -21 53 -19 64 3 5 9 15 41 22 70 11 49 14 53 35 48 15 -4
30 0 39 10 21 21 20 29 -6 54 -22 20 -22 21 -4 68 74 195 101 282 90 299 -18
29 -65 27 -109 -3z m-21 -184 c-19 -52 -40 -108 -46 -123 -7 -18 -16 -26 -27
-23 -9 2 -40 10 -68 16 -29 7 -53 15 -53 18 1 4 21 23 46 42 24 19 74 65 111
102 37 37 68 66 70 65 1 -2 -14 -45 -33 -97z"/>
<path d="M10705 7863 c-37 -10 -85 -53 -85 -77 0 -48 38 -59 72 -21 18 21 30
25 78 25 72 0 96 -21 86 -75 -10 -54 -71 -106 -199 -171 -62 -31 -115 -62
-119 -68 -26 -39 9 -66 140 -109 121 -40 153 -44 172 -22 15 18 4 55 -17 55
-15 0 -164 48 -172 55 -1 2 28 19 66 38 76 39 166 114 189 159 8 16 16 51 17
78 2 56 -21 96 -69 119 -30 15 -124 24 -159 14z"/>
<path d="M6188 7855 c-80 -29 -117 -76 -88 -110 18 -22 57 -19 65 5 7 22 67
44 105 38 30 -4 38 -42 21 -99 -17 -56 -121 -149 -219 -195 -45 -22 -84 -45
-87 -51 -13 -37 22 -54 149 -74 34 -6 92 -20 129 -32 76 -24 102 -18 102 24 0
26 -19 35 -149 69 l-70 17 30 16 c44 23 132 105 160 149 33 51 47 129 33 180
-18 69 -94 95 -181 63z"/>
<path d="M6547 7773 c-4 -3 -7 -18 -7 -32 0 -15 -16 -59 -35 -100 -56 -116
-47 -134 58 -124 64 6 67 5 96 -25 23 -22 31 -40 31 -65 0 -42 -36 -97 -75
-116 -26 -13 -33 -12 -72 9 -23 12 -49 33 -58 46 -20 30 -53 31 -64 2 -13 -34
5 -61 66 -101 62 -41 109 -47 166 -23 66 28 123 127 114 198 -10 76 -94 158
-161 158 -14 0 -26 4 -26 9 0 8 29 83 35 89 1 1 34 -9 72 -23 81 -29 115 -31
134 -9 22 26 0 43 -105 80 -94 32 -155 42 -169 27z"/>
<path d="M11631 7645 c-49 -15 -91 -50 -91 -75 0 -46 74 -67 89 -26 11 27 21
32 84 41 50 8 63 -2 53 -40 -10 -38 -65 -95 -91 -95 -26 0 -55 -24 -55 -45 0
-8 12 -22 28 -32 43 -26 52 -43 52 -96 0 -61 -14 -87 -46 -87 -33 0 -93 26
-121 52 -21 20 -22 23 -7 39 19 21 15 48 -8 63 -13 8 -24 6 -45 -10 -40 -30
-44 -90 -8 -132 65 -77 215 -109 267 -57 46 46 61 144 33 212 -15 35 -14 36
16 71 38 43 68 107 69 145 0 18 -11 39 -29 58 -26 26 -36 29 -88 28 -32 0 -78
-6 -102 -14z"/>
<path d="M12040 7503 c-97 -56 -132 -108 -155 -229 -18 -89 -11 -155 22 -211
40 -72 108 -91 188 -54 71 33 105 86 105 164 0 23 -8 58 -18 77 -21 43 -112
100 -159 100 -37 0 -40 6 -19 36 19 27 119 76 139 68 17 -6 31 -37 32 -68 0
-27 30 -44 53 -30 38 24 22 105 -30 149 -40 34 -98 33 -158 -2z m25 -246 c54
-30 71 -67 56 -118 -20 -68 -114 -95 -148 -43 -20 31 -31 134 -14 134 6 0 21
11 33 25 26 30 23 30 73 2z"/>
<path d="M7652 7475 c-35 -18 -80 -36 -100 -40 -21 -3 -47 -13 -59 -21 -27
-17 -30 -52 -7 -61 14 -5 88 9 161 32 20 6 18 -1 -24 -117 -25 -67 -55 -153
-66 -191 -19 -61 -20 -69 -5 -83 30 -31 54 -9 81 74 14 42 51 148 83 235 49
135 55 161 46 182 -15 32 -33 30 -110 -10z"/>
<path d="M7985 7401 c-44 -11 -70 -27 -99 -62 -28 -33 -33 -58 -14 -77 20 -20
40 -14 78 28 30 32 44 40 73 40 38 0 61 -17 72 -51 5 -16 -2 -30 -27 -56 -32
-34 -231 -175 -276 -196 -27 -12 -39 -51 -23 -71 7 -8 24 -17 39 -20 15 -4 73
-21 129 -38 86 -26 105 -29 118 -18 9 7 15 23 13 34 -2 17 -22 27 -92 52 l-89
30 89 59 c109 73 173 130 190 171 24 58 -17 143 -82 170 -36 15 -53 16 -99 5z"/>
<path d="M8804 7140 c-49 -19 -84 -104 -84 -200 0 -63 6 -70 61 -70 75 0 106
-41 78 -103 -23 -51 -102 -57 -161 -14 -34 25 -41 43 -26 67 9 14 9 22 -1 34
-31 37 -91 0 -91 -54 0 -38 59 -106 115 -131 48 -22 126 -24 163 -5 56 29 76
62 80 131 4 65 4 65 -36 105 -22 22 -49 40 -60 40 -36 0 -50 10 -45 33 26 113
20 110 135 71 81 -28 108 -27 108 5 0 31 -25 49 -111 76 -87 27 -94 28 -125
15z"/>
<path d="M9123 7039 c-7 -7 -13 -21 -13 -30 0 -9 6 -21 13 -27 19 -16 87 -40
150 -52 l58 -12 -81 -84 c-65 -70 -90 -106 -137 -200 -61 -122 -63 -149 -13
-149 26 0 24 -2 81 116 47 100 142 215 218 266 37 25 51 41 51 58 0 36 -50 66
-129 76 -37 4 -88 15 -112 24 -71 26 -73 27 -86 14z"/>
<path d="M9950 6785 c-34 -41 58 -102 191 -126 38 -7 69 -15 69 -19 0 -4 -18
-21 -39 -38 -45 -36 -137 -147 -200 -240 -48 -71 -51 -105 -11 -110 22 -3 34
9 82 80 75 111 156 199 234 254 35 25 64 51 64 58 0 36 -32 55 -127 76 -122
26 -180 47 -187 65 -7 19 -60 19 -76 0z"/>
<path d="M10440 6624 c-78 -34 -111 -92 -72 -127 33 -30 72 -15 72 29 0 17 9
24 47 34 45 13 47 13 70 -14 18 -21 23 -39 23 -78 0 -45 -4 -54 -32 -79 -57
-50 -183 -124 -270 -158 -36 -14 -40 -58 -5 -66 12 -2 89 -21 170 -41 81 -20
155 -33 163 -30 10 4 14 16 12 33 -3 24 -11 29 -83 51 -44 14 -88 27 -98 31
-15 5 -4 15 50 46 79 47 138 97 159 136 30 59 10 160 -42 215 -27 30 -37 34
-80 34 -27 -1 -65 -8 -84 -16z"/>
<path d="M5841 6678 c-49 -24 -103 -92 -99 -123 6 -39 45 -31 92 19 35 38 48
46 79 46 23 0 45 -8 63 -24 l28 -23 -53 -56 c-29 -31 -106 -91 -170 -134 -129
-87 -132 -90 -129 -118 2 -14 16 -24 48 -34 25 -7 87 -29 137 -47 106 -39 138
-42 152 -15 16 29 -4 44 -106 81 -51 19 -93 37 -93 41 0 3 26 23 58 44 80 54
160 123 194 169 50 70 29 138 -56 177 -54 24 -91 24 -145 -3z"/>
<path d="M6193 6550 c-47 -28 -68 -65 -57 -98 13 -36 53 -37 71 -2 17 35 42
50 81 50 38 0 98 -25 105 -43 9 -26 -14 -75 -55 -116 -47 -47 -77 -62 -191
-96 -89 -26 -107 -38 -107 -71 0 -29 18 -38 173 -93 130 -45 158 -49 178 -25
22 27 -2 47 -99 79 -50 16 -93 32 -95 35 -3 3 24 16 61 30 117 44 211 152 212
242 0 44 -38 94 -87 114 -49 21 -151 18 -190 -6z"/>
<path d="M11338 6317 c-78 -64 -136 -101 -198 -126 -81 -34 -100 -48 -100 -77
0 -28 40 -49 168 -87 l74 -21 -8 -31 c-4 -16 -7 -46 -8 -65 -1 -32 1 -35 29
-35 27 0 31 4 48 62 l19 63 30 -16 c27 -14 32 -14 46 -1 22 23 8 62 -27 77
l-30 12 30 80 c41 111 52 164 39 188 -17 31 -54 24 -112 -23z m-4 -154 c-31
-82 -32 -83 -47 -79 -7 2 -33 10 -59 16 -27 7 -48 16 -48 20 0 3 21 17 48 29
26 12 63 35 82 51 19 16 38 30 42 30 4 0 -4 -30 -18 -67z"/>
<path d="M11646 6288 c-24 -23 -85 -159 -111 -253 -47 -162 11 -260 138 -236
114 21 180 116 192 273 5 75 3 92 -16 132 -32 68 -79 106 -134 106 -32 0 -51
-6 -69 -22z m105 -75 c30 -34 52 -81 43 -95 -3 -5 -7 -35 -9 -66 -2 -65 -32
-133 -70 -158 -33 -22 -100 -30 -110 -13 -11 16 -8 105 4 144 11 36 73 185 84
203 13 19 31 14 58 -15z"/>
<path d="M7191 6269 c-51 -10 -91 -33 -91 -53 0 -47 26 -57 76 -31 62 32 129
3 122 -52 -3 -26 -33 -47 -109 -78 -13 -6 -25 -20 -27 -32 -3 -18 6 -27 43
-44 65 -31 74 -52 36 -89 -46 -46 -76 -41 -141 25 -68 69 -100 71 -100 6 0
-29 112 -129 153 -136 42 -8 92 7 127 38 63 55 75 105 40 162 l-20 33 40 40
c46 46 50 74 21 139 -28 62 -89 87 -170 72z"/>
<path d="M7573 6139 c-28 -13 -53 -38 -74 -71 -32 -50 -69 -161 -69 -208 0
-32 35 -108 62 -137 39 -42 139 -22 195 39 12 12 35 52 52 88 26 55 31 77 31
140 0 86 -19 129 -69 155 -41 21 -78 19 -128 -6z m115 -89 c19 -37 9 -116 -22
-182 -28 -58 -54 -82 -98 -93 -21 -6 -28 -1 -43 31 -30 63 0 190 60 249 33 34
83 32 103 -5z"/>
<path d="M8657 5916 c-66 -24 -139 -91 -174 -160 -31 -61 -53 -181 -43 -235
33 -182 269 -168 309 19 15 68 14 78 -9 128 -29 64 -97 86 -172 57 -48 -19 21
67 86 106 51 31 81 25 100 -18 27 -61 32 -68 51 -68 48 0 43 86 -8 141 -38 41
-84 51 -140 30z m13 -275 c14 -27 13 -76 -4 -116 -37 -89 -156 -66 -156 31 0
50 9 65 54 85 54 24 92 24 106 0z"/>
<path d="M9670 5609 c-14 -6 -37 -22 -52 -36 -33 -31 -39 -86 -11 -102 23 -13
53 4 53 30 0 14 12 25 36 35 40 17 65 12 111 -23 l33 -24 -34 -51 c-67 -98
-155 -179 -249 -227 -40 -21 -53 -34 -55 -53 -3 -29 19 -40 108 -53 25 -4 68
-16 95 -26 63 -24 82 -24 95 1 15 28 -14 54 -84 76 -31 10 -56 20 -56 23 0 3
16 17 35 30 90 61 215 226 215 283 0 81 -148 153 -240 117z"/>
<path d="M10061 5517 c-19 -7 -43 -24 -54 -39 -24 -32 -34 -116 -17 -148 11
-20 8 -26 -23 -59 -19 -20 -40 -46 -46 -58 -28 -56 0 -169 53 -211 29 -22 148
-54 175 -45 63 20 91 56 91 118 0 40 -22 100 -47 127 -15 17 -15 18 1 18 31 0
73 29 86 59 21 53 6 110 -49 176 -64 77 -95 88 -170 62z m113 -111 c42 -50 49
-101 16 -111 -55 -18 -148 54 -135 104 17 68 68 71 119 7z m-86 -226 c44 -29
63 -49 72 -74 13 -40 0 -76 -27 -76 -28 0 -97 23 -115 38 -23 19 -41 76 -33
102 6 18 31 50 40 50 2 0 31 -18 63 -40z"/>
<path d="M5547 5495 c-24 -24 -71 -186 -59 -205 6 -10 27 -15 66 -16 121 -1
153 -86 65 -170 -29 -28 -30 -28 -71 -14 -59 21 -68 41 -39 81 18 24 21 36 14
48 -31 50 -103 -8 -103 -83 0 -52 21 -83 74 -107 61 -28 127 -25 165 7 39 32
77 98 86 145 13 72 -47 146 -132 164 -25 5 -33 12 -33 29 0 46 19 57 84 46 32
-5 77 -19 98 -30 50 -26 80 -19 76 18 -5 46 -80 77 -229 97 -35 4 -51 2 -62
-10z"/>
<path d="M6124 5368 c-16 -13 -76 -65 -134 -117 -58 -51 -120 -103 -138 -114
-78 -46 -61 -77 63 -112 49 -15 92 -28 94 -31 2 -2 -4 -31 -14 -65 -18 -60
-18 -62 -1 -75 29 -21 52 -1 77 66 18 49 24 58 38 51 21 -12 51 4 51 26 0 9
-9 26 -20 38 -20 21 -20 21 1 81 27 75 69 215 69 231 0 15 -28 43 -44 43 -7 0
-26 -10 -42 -22z m-49 -213 c-15 -41 -31 -78 -36 -81 -10 -6 -78 13 -92 26 -5
4 26 37 69 74 43 36 80 64 82 61 3 -2 -8 -38 -23 -80z"/>
<path d="M11208 5115 c-36 -19 -99 -43 -139 -54 -88 -24 -109 -46 -69 -74 18
-12 29 -12 82 0 34 8 77 21 96 29 19 8 36 13 37 12 1 -2 -20 -58 -47 -126 -80
-200 -92 -292 -38 -292 25 0 35 17 49 85 7 33 39 128 72 210 67 172 77 209 59
230 -17 21 -25 19 -102 -20z"/>
<path d="M6892 5114 c-62 -31 -98 -72 -148 -169 -43 -85 -52 -146 -31 -196 20
-48 72 -106 102 -113 40 -10 103 12 143 49 32 29 37 39 36 77 -1 54 -37 131
-72 154 -15 10 -43 16 -64 16 l-38 -2 17 28 c41 66 89 102 138 102 33 0 50
-38 33 -75 -8 -19 -8 -28 2 -40 18 -22 49 -15 73 17 20 27 20 29 3 83 -29 94
-96 118 -194 69z m8 -294 c28 -54 26 -77 -10 -95 -42 -21 -55 -19 -84 16 -34
40 -38 114 -6 104 11 -3 28 -2 37 4 30 18 42 12 63 -29z"/>
<path d="M7393 4980 c-15 -10 -58 -45 -95 -77 -37 -32 -95 -75 -129 -93 -75
-42 -111 -75 -107 -97 4 -20 15 -26 118 -57 119 -37 117 -36 101 -88 -18 -62
-18 -89 1 -101 25 -16 55 16 73 77 10 35 22 54 37 61 28 12 34 38 13 58 -14
14 -13 21 5 69 28 75 61 218 55 238 -8 26 -40 30 -72 10z m-44 -191 c-36 -106
-31 -102 -92 -78 -28 11 -53 22 -55 24 -2 1 16 14 40 28 24 15 61 42 83 61 22
19 41 33 43 31 2 -1 -7 -31 -19 -66z"/>
<path d="M8060 4735 c-47 -25 -95 -45 -107 -45 -12 0 -27 -9 -33 -19 -13 -25
-13 -27 6 -45 23 -24 58 -19 121 16 49 27 56 29 49 12 -22 -58 -97 -340 -94
-358 4 -26 40 -33 57 -12 7 9 42 115 77 237 82 287 79 295 -76 214z"/>
<path d="M8529 4603 c-19 -15 -67 -58 -108 -96 -65 -61 -154 -117 -188 -117
-20 0 -35 -37 -24 -58 9 -17 163 -72 199 -72 15 0 15 0 -3 -43 -20 -49 -20
-106 1 -114 28 -10 46 10 65 74 l19 61 38 -5 c27 -4 42 -1 51 10 16 20 0 53
-30 62 -24 8 -25 2 31 148 48 126 50 170 9 175 -17 2 -38 -7 -60 -25z m-40
-175 c-12 -29 -25 -63 -30 -75 -10 -26 -17 -27 -70 -12 l-37 12 56 42 c32 24
66 52 76 64 11 12 21 21 22 21 2 0 -6 -24 -17 -52z"/>
<path d="M9362 4353 c-14 -12 -33 -61 -57 -143 -19 -68 -35 -128 -35 -132 0
-4 11 -15 25 -24 23 -15 27 -15 60 6 46 28 100 21 117 -16 13 -29 -2 -86 -32
-123 l-21 -24 -50 23 c-56 27 -76 45 -59 55 15 9 12 31 -6 49 -21 22 -27 20
-63 -13 -22 -20 -31 -38 -31 -59 0 -28 7 -35 85 -77 104 -57 142 -61 185 -20
45 43 70 103 70 166 0 47 -4 59 -27 82 -33 31 -92 57 -129 57 -18 0 -25 4 -21
14 3 8 11 34 18 57 7 24 16 48 20 53 4 4 36 -3 71 -17 88 -34 124 -40 143 -21
8 9 15 22 15 29 0 19 -39 45 -68 45 -12 0 -49 11 -82 25 -70 30 -100 31 -128
8z"/>
<path d="M9727 4194 c-77 -40 -106 -125 -70 -201 29 -61 94 -87 159 -63 26 10
26 10 20 -22 -10 -50 -54 -117 -81 -124 -41 -10 -78 9 -98 50 -20 43 -41 54
-63 35 -22 -18 -12 -84 17 -115 46 -49 146 -64 202 -30 46 29 104 159 140 317
9 40 8 52 -11 92 -12 24 -33 54 -48 66 -37 29 -105 27 -167 -5z m120 -52 c16
-10 34 -59 27 -74 -9 -24 -77 -68 -104 -68 -34 0 -50 17 -50 55 0 37 15 59 55
80 33 16 54 19 72 7z"/>
<path d="M10753 3953 c-12 -2 -36 -17 -53 -33 -35 -33 -40 -81 -14 -133 13
-24 14 -32 4 -35 -7 -3 -29 -19 -48 -37 -60 -54 -55 -155 10 -236 38 -46 114
-65 199 -49 75 14 92 35 97 115 4 52 0 72 -18 107 -16 32 -19 43 -9 47 31 10
59 51 59 85 0 117 -102 193 -227 169z m113 -100 c23 -20 34 -36 34 -55 0 -63
-113 -37 -152 35 -27 50 61 65 118 20z m-85 -177 c19 -8 46 -24 62 -36 23 -19
27 -29 27 -75 0 -60 -6 -65 -76 -65 -60 0 -82 14 -105 65 -22 50 -13 95 24
113 29 14 29 14 68 -2z"/>
<path d="M6475 3945 c-48 -17 -87 -59 -83 -89 4 -31 43 -32 79 -2 37 31 88 34
113 7 36 -39 -24 -152 -73 -136 -11 3 -30 1 -41 -5 -30 -16 -22 -52 15 -68 66
-28 80 -39 83 -61 5 -34 -17 -79 -50 -103 -35 -24 -52 -19 -130 38 -42 32 -46
38 -41 67 7 46 -17 66 -52 43 -66 -43 -49 -101 49 -170 123 -88 167 -92 239
-18 66 68 83 139 46 199 -19 31 -20 35 -5 51 26 29 46 89 46 136 0 55 -35 101
-88 116 -47 13 -58 12 -107 -5z"/>
<path d="M6842 3852 c-89 -35 -133 -109 -108 -183 13 -36 12 -40 -5 -50 -53
-28 -68 -130 -30 -213 31 -71 50 -81 161 -84 96 -4 97 -3 119 23 26 34 30 139
6 184 -14 28 -14 29 16 41 42 18 59 47 59 100 0 55 -42 145 -80 171 -37 26
-89 30 -138 11z m126 -122 c12 -25 21 -54 20 -65 -3 -17 -10 -20 -53 -19 -121
1 -170 50 -110 110 21 21 33 25 73 22 45 -3 48 -5 70 -48z m-63 -211 c18 -34
25 -63 23 -87 l-3 -37 -62 0 c-78 0 -101 19 -109 91 -7 60 2 71 66 77 25 2 48
4 52 5 4 1 19 -21 33 -49z"/>
<path d="M7654 3586 c-3 -9 -3 -32 0 -51 5 -25 -1 -54 -25 -116 -38 -99 -34
-115 32 -112 74 4 108 -6 150 -44 45 -41 50 -70 19 -121 -23 -37 -62 -55 -100
-47 -16 3 -57 36 -95 76 -74 76 -107 87 -113 38 -2 -21 10 -41 54 -88 68 -74
116 -101 180 -101 59 0 107 28 138 83 52 90 43 152 -31 217 -25 22 -64 45 -87
51 -79 21 -76 16 -52 86 l21 63 80 -35 c92 -41 111 -43 120 -14 10 30 -17 54
-103 89 -92 39 -178 51 -188 26z"/>
<path d="M8123 3460 c-78 -18 -104 -56 -133 -188 -30 -141 -34 -193 -17 -234
20 -47 50 -66 118 -74 53 -6 57 -5 90 27 46 44 102 204 103 294 1 53 -3 67
-37 118 -21 31 -44 57 -51 57 -8 0 -20 2 -28 4 -7 2 -28 0 -45 -4z m62 -107
c15 -23 25 -51 25 -73 0 -37 -52 -204 -71 -226 -15 -19 -73 -18 -89 1 -27 32
16 272 56 312 32 32 49 29 79 -14z"/>
<path d="M8988 3186 c-58 -23 -88 -46 -108 -86 -22 -44 -60 -186 -60 -227 0
-53 29 -128 65 -167 l35 -39 65 5 c115 10 175 67 175 167 0 35 -7 70 -18 91
-24 46 -95 82 -162 83 -55 1 -57 4 -34 48 35 69 174 80 174 14 0 -47 50 -72
70 -36 22 43 2 104 -45 135 -35 23 -112 29 -157 12z m52 -264 c61 -31 63 -137
2 -160 -67 -26 -89 -25 -111 6 -24 34 -41 100 -32 125 8 22 48 45 81 46 14 1
41 -7 60 -17z"/>
<path d="M9333 3070 c-39 -23 -66 -62 -58 -83 10 -24 44 -28 65 -7 25 25 55
40 79 40 24 0 91 -56 91 -76 0 -25 -82 -98 -165 -146 -44 -26 -99 -59 -122
-72 -32 -19 -43 -32 -43 -50 0 -32 17 -44 86 -61 33 -9 79 -24 104 -34 73 -30
114 -34 139 -14 28 23 19 51 -18 58 -30 6 -150 44 -169 55 -8 4 17 25 70 57
144 88 210 172 188 237 -11 33 -58 85 -97 105 -35 18 -114 13 -150 -9z"/>
<path d="M10211 2796 c-14 -17 -5 -44 17 -50 10 -3 49 -12 87 -21 39 -9 87
-20 108 -26 l38 -10 -96 -101 c-107 -111 -185 -211 -185 -237 0 -20 19 -41 36
-41 7 0 34 28 60 63 26 34 101 116 166 183 161 162 157 178 -50 229 -114 28
-164 31 -181 11z"/>
<path d="M10663 2668 c-11 -14 -63 -190 -63 -212 0 -29 28 -40 69 -26 44 14
73 8 101 -23 31 -32 25 -74 -14 -113 -49 -49 -93 -48 -135 3 -17 21 -31 45
-31 53 0 19 -19 40 -37 40 -7 0 -20 -11 -29 -25 -20 -31 -12 -53 39 -117 35
-44 74 -68 109 -68 79 0 168 65 187 137 23 84 -30 169 -119 193 -40 11 -42 13
-36 43 10 48 18 51 90 33 83 -21 103 -20 115 3 17 30 -8 48 -96 70 -93 24
-136 26 -150 9z"/>
<path d="M5262 4251 c-102 -51 -112 -58 -110 -81 4 -34 37 -37 98 -11 27 12
53 21 59 21 5 0 -1 -28 -15 -62 -13 -34 -34 -98 -46 -143 -11 -44 -29 -97 -39
-117 -11 -21 -19 -46 -19 -57 0 -21 28 -35 53 -26 19 8 50 79 78 180 12 43 41
132 66 197 24 65 43 126 41 135 -6 32 -50 22 -166 -36z"/>
<path d="M5541 4201 c-9 -17 -8 -24 8 -40 20 -20 79 -41 117 -41 29 0 124 -29
124 -38 -1 -4 -21 -23 -46 -42 -99 -76 -224 -253 -224 -316 0 -25 26 -44 48
-37 7 3 28 37 47 76 41 87 121 178 224 256 64 48 76 61 76 86 0 23 -6 31 -25
36 -14 4 -52 15 -85 25 -33 9 -91 23 -130 31 -38 8 -82 17 -97 20 -20 4 -29 0
-37 -16z"/>
<path d="M5425 9901 c-3 -6 -1 -29 5 -53 13 -57 12 -64 -2 -50 -7 7 -25 12
-42 12 -28 0 -29 1 -12 19 19 20 14 41 -8 41 -30 0 -51 -45 -47 -102 2 -28 38
-58 69 -58 28 0 62 26 62 47 0 5 13 8 29 5 24 -3 32 2 50 31 28 46 27 71 -5
96 -27 21 -88 29 -99 12z m82 -56 c1 -5 -2 -17 -7 -25 -9 -13 -11 -13 -20 0
-15 23 -12 42 7 38 9 -2 18 -7 20 -13z m-107 -85 c0 -5 -7 -10 -15 -10 -8 0
-15 5 -15 10 0 6 7 10 15 10 8 0 15 -4 15 -10z"/>
<path d="M5088 9723 c-24 -28 -28 -63 -11 -104 23 -58 76 -66 107 -16 16 25
-5 51 -43 55 -32 3 -40 19 -20 39 12 12 6 43 -9 43 -5 0 -16 -8 -24 -17z"/>
<path d="M5226 9719 c-14 -11 -26 -27 -26 -35 0 -22 34 -17 59 9 18 20 19 26
8 36 -11 9 -20 6 -41 -10z"/>
<path d="M4970 9634 c-34 -76 -35 -78 -16 -93 9 -8 21 -8 45 0 23 8 35 8 46
-1 20 -16 38 -2 31 24 -10 40 -57 136 -67 136 -5 0 -22 -30 -39 -66z"/>
<path d="M4300 9290 c-26 -25 -30 -32 -20 -50 15 -28 56 -53 72 -44 7 4 6 -1
-3 -12 -17 -20 -15 -44 4 -44 18 0 67 52 67 72 0 21 -44 41 -70 33 -29 -9 -32
11 -5 29 14 9 25 23 25 31 0 25 -36 17 -70 -15z"/>
<path d="M4206 9238 c-11 -34 -15 -127 -6 -133 5 -3 22 1 37 8 21 11 32 12 45
4 13 -9 20 -9 29 0 8 8 1 26 -28 69 -38 58 -69 79 -77 52z"/>
<path d="M5229 9107 c-19 -12 -44 -42 -57 -67 -44 -84 -16 -209 39 -179 16 8
19 22 19 74 0 77 24 112 83 122 l37 6 0 -95 c0 -61 -9 -140 -26 -224 l-25
-129 20 -16 c19 -16 27 -13 163 55 148 73 170 95 133 126 -13 11 -31 6 -115
-33 l-100 -46 0 27 c1 15 7 56 15 92 8 36 14 97 15 136 0 143 -19 174 -109
174 -44 0 -67 -6 -92 -23z"/>
<path d="M4086 9099 c-30 -23 -34 -49 -8 -49 22 0 74 48 67 61 -10 15 -30 11
-59 -12z"/>
<path d="M3921 9070 c-13 -43 -22 -48 -41 -25 -17 21 -33 19 -57 -7 -29 -32
-36 -63 -19 -77 12 -10 18 -7 31 18 20 40 26 39 23 -1 -3 -29 0 -33 20 -30 35
3 22 -22 -14 -28 -38 -7 -39 -34 -1 -38 66 -8 105 67 55 102 l-22 16 22 0 c12
0 22 5 22 10 0 24 19 7 34 -30 16 -40 46 -55 46 -23 0 10 -12 48 -26 85 -31
81 -54 90 -73 28z"/>
<path d="M4586 8698 c-16 -12 -52 -34 -80 -48 -40 -21 -51 -32 -51 -51 0 -35
44 -37 102 -5 25 15 47 25 48 24 1 -2 10 -86 19 -188 26 -277 22 -260 62 -260
17 0 27 8 34 26 6 14 7 30 4 36 -9 14 -43 338 -44 409 0 81 -34 102 -94 57z"/>
<path d="M3129 8644 c-15 -18 -6 -74 16 -108 25 -38 60 -44 91 -15 48 45 20
106 -58 127 -29 8 -40 7 -49 -4z m88 -70 c1 -5 -2 -16 -7 -24 -9 -13 -12 -12
-25 4 -8 11 -15 29 -15 39 0 18 2 18 22 5 12 -8 23 -19 25 -24z"/>
<path d="M3030 8613 c-21 -7 -40 -34 -40 -55 0 -22 28 -24 36 -3 11 28 24 15
17 -16 -6 -30 -5 -32 20 -25 14 3 28 2 31 -3 7 -11 -16 -31 -44 -36 -29 -6
-34 -11 -27 -30 16 -41 117 14 117 64 0 20 -24 51 -41 51 -5 0 -9 6 -9 14 0
15 -27 47 -38 45 -4 0 -14 -3 -22 -6z"/>
<path d="M4291 8591 c-8 -6 -24 -58 -38 -128 -15 -79 -34 -142 -58 -189 -40
-81 -43 -109 -16 -124 21 -10 73 13 175 78 28 18 53 32 58 32 4 0 17 -33 28
-72 31 -105 37 -118 59 -118 44 0 70 72 37 100 -8 6 -23 35 -32 63 -54 164
-157 367 -186 367 -7 0 -19 -4 -27 -9z m67 -188 c11 -27 22 -54 24 -60 2 -7
-21 -27 -51 -44 -44 -26 -53 -28 -47 -13 13 33 36 127 36 146 0 32 17 19 38
-29z"/>
<path d="M2950 8472 c-23 -20 -31 -34 -27 -45 9 -24 18 -21 56 13 21 18 31 35
28 45 -9 21 -18 19 -57 -13z"/>
<path d="M2759 8446 c-15 -32 -6 -67 27 -105 29 -34 63 -40 88 -15 41 40 -4
105 -58 85 -28 -11 -37 4 -15 26 6 6 8 16 5 22 -12 19 -36 12 -47 -13z m91
-81 c0 -8 -7 -15 -15 -15 -16 0 -20 12 -8 23 11 12 23 8 23 -8z"/>
<path d="M2677 8423 c-14 -25 -37 -114 -32 -123 11 -17 22 -11 35 20 17 41 27
38 50 -14 20 -48 37 -63 52 -48 6 6 -1 31 -22 73 -43 85 -70 115 -83 92z"/>
<path d="M3419 8042 c-26 -9 -55 -24 -64 -32 -50 -42 -73 -176 -37 -220 11
-13 33 -23 60 -27 41 -6 42 -6 42 -45 0 -32 7 -47 34 -74 30 -30 40 -34 89
-34 41 0 61 5 82 22 39 31 65 93 65 159 0 58 -14 80 -67 108 -18 9 -21 17 -17
40 9 43 -18 86 -66 105 -49 19 -62 19 -121 -2z m109 -94 c2 -16 -2 -28 -8 -28
-6 0 -28 -18 -50 -40 -29 -29 -47 -40 -70 -40 -26 0 -30 4 -30 26 0 14 7 41
16 60 13 27 22 34 45 34 15 0 31 5 34 11 4 5 19 9 33 7 21 -2 28 -9 30 -30z
m76 -123 c23 -17 18 -77 -9 -119 -20 -30 -64 -35 -90 -9 -23 22 -11 80 23 116
29 30 48 33 76 12z"/>
<path d="M1983 8035 c-40 -17 -53 -57 -31 -94 8 -14 21 -24 29 -22 43 12 59
12 59 2 0 -6 -11 -16 -25 -21 -27 -10 -33 -35 -11 -43 7 -3 27 3 45 14 24 14
31 26 31 49 0 34 -22 50 -69 50 -38 0 -40 15 -3 32 27 13 37 39 17 44 -5 2
-24 -3 -42 -11z"/>
<path d="M1841 7939 c-35 -49 -37 -57 -15 -66 10 -4 24 4 38 21 l22 28 23 -56
c22 -53 42 -69 56 -46 4 6 -3 32 -14 58 -52 117 -64 123 -110 61z"/>
<path d="M3051 7893 c-38 -7 -153 -127 -149 -155 6 -44 43 -34 102 26 62 64
86 71 86 26 0 -32 -19 -76 -53 -121 -15 -22 -17 -31 -8 -48 16 -29 45 -26 71
7 28 35 58 51 96 52 35 0 56 -19 79 -73 21 -51 19 -64 -14 -98 -37 -37 -105
-42 -114 -9 -6 24 -52 28 -61 4 -20 -53 8 -92 73 -101 57 -8 122 19 167 69 35
39 36 43 31 99 -6 70 -44 142 -87 164 -16 8 -47 15 -70 15 l-40 0 0 49 c0 74
-39 108 -109 94z"/>
<path d="M1799 7838 c-19 -11 -44 -29 -56 -41 -24 -21 -31 -47 -13 -47 19 0
120 71 120 85 0 24 -15 25 -51 3z"/>
<path d="M1574 7789 c-35 -55 -17 -100 20 -48 14 21 15 21 30 -16 9 -21 16
-41 16 -45 0 -17 26 -30 37 -19 8 8 8 22 -2 49 -20 57 -54 120 -65 120 -5 0
-21 -18 -36 -41z"/>
<path d="M1935 7303 c-128 -67 -143 -209 -25 -244 35 -11 38 -14 29 -36 -38
-100 54 -203 182 -203 55 0 59 2 115 52 68 62 89 104 73 145 -21 55 -102 123
-148 123 -18 0 -19 5 -14 48 5 47 4 49 -38 85 -33 28 -51 37 -80 37 -21 0 -43
2 -51 5 -7 2 -26 -3 -43 -12z m119 -78 c44 -33 -16 -95 -92 -95 -46 0 -68 19
-54 47 22 40 46 53 117 61 6 1 18 -5 29 -13z m132 -177 c54 -37 59 -54 29 -94
-51 -67 -120 -80 -179 -33 -18 14 -26 30 -26 52 0 44 11 58 62 78 57 24 76 23
114 -3z"/>
<path d="M3796 6828 c-9 -12 -16 -31 -16 -40 0 -10 -16 -59 -35 -109 -28 -70
-33 -94 -25 -109 6 -11 16 -20 23 -20 28 1 39 17 79 120 9 23 13 19 58 -70 26
-52 62 -124 80 -160 18 -36 38 -76 44 -89 15 -33 31 -36 55 -12 21 21 21 21 2
72 -11 28 -36 78 -56 112 -20 34 -61 115 -91 181 -66 146 -87 168 -118 124z"/>
<path d="M2856 6275 c-146 -55 -170 -84 -118 -143 17 -18 35 -53 42 -78 13
-47 46 -79 72 -69 8 3 22 18 31 34 22 38 74 48 119 25 33 -17 48 -31 48 -47 0
-14 -122 -137 -149 -150 -18 -8 -26 -20 -26 -37 0 -21 5 -26 33 -28 29 -3 42
5 114 75 97 94 115 128 94 177 -31 74 -149 116 -230 82 -22 -9 -40 -15 -41
-14 -1 2 -11 20 -23 40 l-21 38 84 25 c106 33 136 60 103 93 -17 17 -31 14
-132 -23z"/>
<path d="M2550 6132 c-35 -15 -82 -44 -103 -64 -36 -34 -39 -41 -34 -77 6 -47
79 -158 119 -180 25 -14 28 -13 67 22 23 20 48 37 57 37 23 0 74 -55 74 -80 0
-13 -17 -40 -39 -61 -34 -34 -45 -39 -85 -39 -33 0 -46 4 -46 14 0 16 -26 46
-40 46 -18 0 -40 -33 -40 -60 0 -60 73 -91 165 -70 92 21 155 90 155 170 0
116 -123 188 -219 129 l-35 -21 -17 23 c-9 12 -24 35 -33 50 -16 26 -15 29 5
48 12 11 47 30 78 42 31 12 62 27 69 32 18 14 15 45 -7 57 -24 12 -13 14 -91
-18z"/>
<path d="M4235 5608 c-80 -44 -131 -144 -90 -178 23 -19 48 -8 57 26 10 40 51
84 78 84 61 0 78 -51 40 -125 -25 -49 -25 -62 -1 -75 14 -7 29 -6 56 6 20 8
47 14 58 12 26 -4 37 -41 25 -83 -13 -47 -34 -57 -117 -53 -62 2 -76 0 -85
-14 -8 -13 -8 -23 0 -35 9 -15 28 -19 101 -21 86 -3 92 -1 123 25 96 80 71
253 -35 253 l-36 0 6 48 c8 61 -9 91 -65 120 -48 24 -84 27 -115 10z"/>
<path d="M3500 5282 c-30 -9 -60 -46 -75 -93 -18 -52 -14 -84 12 -93 16 -7 43
9 43 26 0 5 7 25 16 46 14 34 16 35 26 18 7 -12 11 -80 12 -165 1 -119 -2
-155 -17 -193 -10 -26 -16 -57 -12 -68 9 -27 58 -27 133 1 31 12 82 28 112 36
90 24 136 86 88 117 -13 8 -22 6 -40 -11 -13 -12 -42 -26 -66 -33 -23 -6 -61
-19 -85 -29 l-42 -18 0 176 c0 146 -3 184 -18 223 -18 47 -53 71 -87 60z"/>
<path d="M3183 5152 c-32 -20 -53 -125 -80 -397 -8 -84 6 -95 85 -71 31 10 77
29 101 42 24 13 45 23 46 22 2 -2 12 -22 24 -46 12 -23 33 -48 47 -54 21 -10
28 -8 46 10 l22 22 -21 22 c-35 39 -53 84 -47 116 5 25 2 33 -19 47 -16 10
-39 48 -62 103 -73 172 -85 192 -108 192 -12 0 -27 -4 -34 -8z m80 -229 l46
-103 -42 -24 c-57 -32 -87 -41 -87 -24 0 46 29 262 35 257 2 -2 24 -50 48
-106z"/>
<path d="M3672 3883 c-42 -20 -54 -43 -50 -96 3 -37 6 -42 30 -45 23 -3 28 1
33 25 12 50 15 54 37 51 31 -4 46 -61 47 -179 1 -84 -2 -98 -19 -114 -34 -31
-21 -85 20 -85 9 0 25 9 35 20 10 11 44 27 74 36 179 50 221 70 221 105 0 23
-30 40 -51 29 -21 -12 -169 -60 -184 -60 -8 0 -14 29 -19 89 -15 204 -71 275
-174 224z"/>
<path d="M4600 2975 c-117 -71 -230 -147 -230 -155 0 -15 31 -40 48 -40 9 0
44 18 77 41 52 35 128 79 137 79 2 0 1 -53 0 -117 -4 -125 8 -210 40 -284 22
-52 60 -78 84 -58 20 17 17 41 -11 92 -39 70 -52 187 -35 332 8 70 10 119 4
125 -23 22 -60 18 -114 -15z"/>
</g>
</svg>
