<?xml version="1.0" standalone="no"?>
<!DOCTYPE svg PUBLIC "-//W3C//DTD SVG 20010904//EN"
 "http://www.w3.org/TR/2001/REC-SVG-20010904/DTD/svg10.dtd">
<svg version="1.0" xmlns="http://www.w3.org/2000/svg"
 width="540.000000pt" height="360.000000pt" viewBox="0 0 540.000000 360.000000"
 preserveAspectRatio="xMidYMid meet">
<metadata>
Created by potrace 1.16, written by Peter Selinger 2001-2019
</metadata>
<g transform="translate(0.000000,360.000000) scale(0.100000,-0.100000)"
fill="#000000" stroke="none">
<path d="M0 1800 l0 -1800 2700 0 2700 0 0 1800 0 1800 -2700 0 -2700 0 0
-1800z m3825 1124 c22 -14 26 -14 54 2 41 24 58 9 43 -35 -10 -27 -8 -33 15
-51 34 -26 24 -50 -21 -50 -30 0 -35 -4 -41 -30 -4 -20 -13 -30 -25 -30 -11 0
-22 11 -29 30 -8 25 -16 30 -41 30 -43 0 -51 27 -16 55 24 19 26 25 16 49 -17
46 2 58 45 30z m-2197 -153 c81 -41 142 -154 127 -234 -11 -60 -61 -134 -108
-162 -197 -115 -419 85 -323 291 53 115 192 162 304 105z m1737 -4 c60 -30
114 -85 146 -147 35 -66 34 -194 -1 -265 -93 -189 -346 -235 -495 -89 -68 66
-90 120 -90 224 0 65 5 96 21 130 24 51 93 126 133 142 14 6 42 17 61 25 54
21 164 12 225 -20z m-1239 -111 c38 -38 43 -72 17 -116 -65 -111 -231 -14
-169 99 33 59 102 67 152 17z m2293 4 c31 -16 46 -65 31 -100 -15 -35 -37 -50
-75 -50 -38 0 -60 15 -75 50 -14 34 0 83 29 100 21 12 68 13 90 0z m-1841
-100 c2 -27 10 -39 33 -53 37 -21 34 -39 -9 -52 -26 -7 -32 -14 -32 -36 0 -41
-24 -55 -49 -28 -12 13 -21 26 -21 30 0 4 -17 5 -37 2 -34 -4 -41 -1 -62 28
l-24 32 32 -6 c39 -8 51 12 27 48 -23 35 -12 48 34 41 29 -5 41 -2 55 14 27
30 49 21 53 -20z m1291 -94 c36 -28 30 -105 -9 -126 -70 -38 -142 30 -114 105
14 37 87 49 123 21z m-3053 -37 l32 -31 40 23 c22 13 43 21 46 18 3 -3 -2 -25
-11 -48 l-17 -43 32 -27 c18 -14 32 -29 32 -33 0 -5 -22 -8 -48 -8 -47 0 -50
-1 -67 -40 -20 -45 -30 -44 -40 3 -10 46 -23 57 -66 57 -50 0 -49 13 1 42 22
13 38 28 36 35 -11 28 -17 83 -10 83 4 0 22 -14 40 -31z m1208 -93 c73 -30
102 -107 67 -179 -28 -58 -71 -82 -137 -74 -39 4 -55 12 -81 41 -18 20 -34 46
-34 58 -5 81 13 121 72 150 41 22 69 22 113 4z m2377 -251 c-2 -77 -6 -192
-10 -255 l-6 -115 -92 -3 c-51 -1 -94 -1 -94 0 -5 12 -25 496 -22 506 4 9 33
12 117 10 l111 -3 -4 -140z m-595 99 c7 -9 14 -10 21 -3 8 8 17 8 31 0 11 -6
28 -11 37 -11 27 0 125 -52 145 -77 13 -17 28 -23 55 -23 21 0 34 -4 30 -10
-3 -5 -2 -10 3 -10 8 0 23 -38 24 -60 0 -3 4 -13 9 -22 8 -15 5 -18 -15 -18
-23 0 -25 -3 -19 -32 8 -42 13 -48 13 -17 0 19 2 21 10 9 12 -19 13 -63 1 -56
-5 4 -8 -2 -6 -11 1 -10 0 -22 -3 -28 -4 -5 -7 -26 -8 -46 -5 -103 -61 -211
-134 -260 -60 -40 -111 -53 -210 -54 -183 0 -284 77 -335 255 l-15 55 5 -47 5
-48 -59 0 c-65 0 -77 6 -57 29 8 9 17 30 21 46 6 29 5 29 -14 -7 -23 -40 -69
-79 -116 -97 l-30 -11 35 5 c19 3 59 10 89 15 29 5 72 5 95 2 l41 -8 0 -54 c0
-52 -1 -55 -26 -58 -25 -3 -26 -5 -21 -48 11 -97 -57 -188 -165 -221 -80 -24
-232 -24 -295 0 -51 20 -108 76 -108 107 0 18 -7 20 -62 21 -45 0 -57 3 -43 9
11 5 16 9 10 10 -5 0 9 10 33 21 23 11 42 25 43 32 1 7 2 21 3 32 1 17 9 21
49 23 51 3 54 7 31 37 -16 20 -16 20 -9 -2 6 -21 3 -23 -34 -23 l-39 0 -1 59
c0 64 7 71 70 71 40 0 51 19 27 44 -11 11 -25 33 -30 49 -6 15 -14 27 -19 27
-5 0 0 -18 11 -40 11 -22 17 -40 13 -40 -4 0 2 -7 13 -15 18 -13 16 -14 -23
-15 l-41 0 -4 60 c-3 57 -2 60 20 60 13 0 20 4 17 10 -3 6 -17 10 -30 10 -26
0 -28 10 -18 83 4 35 7 37 39 37 19 0 34 5 34 10 0 6 -3 9 -7 9 -5 -1 -20 -1
-35 0 -26 1 -28 4 -28 40 0 22 4 42 10 46 5 3 7 12 3 20 -4 12 4 15 38 15 54
0 64 -7 74 -45 8 -31 9 -30 19 18 l6 27 155 0 155 0 6 -26 6 -25 12 23 c11 21
18 23 114 26 57 1 102 7 102 12 0 6 -9 10 -19 10 -10 0 -22 7 -25 16 -8 20 -8
39 0 32 3 -4 22 5 41 18 20 13 44 24 54 24 11 0 19 4 19 9 0 23 187 19 206 -5z
m-2417 -1 c9 -17 11 -17 24 1 12 17 24 18 125 14 63 -2 117 -9 125 -16 7 -7
17 -9 20 -5 4 3 7 1 7 -5 0 -6 7 -9 17 -5 12 5 14 3 8 -8 -8 -12 -6 -12 8 0
15 12 17 10 17 -20 1 -52 19 -69 74 -69 25 0 46 -4 46 -9 0 -5 10 -7 23 -4 18
4 19 3 7 -6 -13 -9 -11 -11 7 -11 12 0 24 -6 26 -12 4 -9 8 -10 14 -3 4 6 36
11 70 11 44 1 68 6 81 17 10 10 25 17 33 17 11 0 12 -2 1 -9 -8 -4 -13 -17
-12 -27 4 -34 0 -44 -15 -44 -12 0 -14 -37 -15 -256 0 -141 -2 -260 -6 -265
-8 -14 -188 -11 -202 3 -9 9 -12 82 -13 263 -1 137 -3 242 -6 233 -5 -21 -49
-25 -56 -5 -3 6 -6 1 -6 -14 -1 -14 -15 -47 -31 -73 l-31 -48 28 -21 c15 -12
34 -21 43 -19 11 2 12 1 2 -6 -10 -7 -11 -19 -3 -55 6 -25 8 -53 5 -61 -5 -12
0 -16 20 -16 26 0 27 -2 22 -47 -2 -27 -5 -54 -5 -61 -1 -8 -10 -12 -23 -10
-13 2 -22 8 -22 13 1 6 5 30 9 55 l6 45 -25 -52 c-29 -62 -90 -106 -170 -123
-29 -7 -117 -10 -206 -8 l-155 3 -5 343 c-3 189 -3 347 0 351 28 40 121 56
139 24z m1121 -209 c52 -100 100 -182 105 -183 6 -1 10 58 11 157 1 86 2 169
3 185 l1 27 90 0 90 0 0 -57 c2 -347 -2 -628 -9 -633 -5 -3 -63 -4 -129 -2
l-120 3 -94 181 c-51 100 -98 183 -103 185 -6 2 -9 -66 -7 -182 l2 -185 -95 0
-95 0 0 338 c0 186 3 342 7 346 4 3 61 5 127 4 l121 -3 95 -181z m-1619 -77
c38 -26 64 -84 55 -122 -26 -103 -174 -127 -221 -35 -58 111 63 226 166 157z
m3908 -2 c88 -75 40 -215 -74 -215 -53 0 -98 34 -115 85 -25 75 34 155 115
155 32 0 51 -7 74 -25z m-459 -270 c37 -19 50 -43 50 -92 -1 -103 -139 -142
-186 -52 -29 57 -15 117 34 143 35 20 66 20 102 1z m-1787 -288 c-4 -8 -1 -7
10 1 9 8 21 10 28 6 7 -4 26 -9 43 -11 50 -5 66 -13 66 -32 0 -9 6 -23 13 -30
10 -11 10 -13 0 -7 -22 12 -14 -12 13 -41 46 -49 67 -110 68 -193 0 -129 -59
-227 -172 -282 -89 -44 -179 -46 -263 -7 -203 95 -247 362 -84 512 37 34 121
77 152 77 13 0 23 3 23 8 0 4 25 8 55 9 41 1 54 -1 48 -10z m1099 -5 c31 -11
39 -21 52 -59 20 -59 20 -78 -1 -114 -21 -35 -63 -53 -106 -45 -41 8 -62 29
-81 82 -8 21 -15 33 -15 26 -1 -7 -5 -10 -11 -7 -12 7 -14 26 -2 24 18 -3 32
2 32 11 0 6 -7 10 -15 10 -8 0 -15 4 -15 10 0 17 23 60 32 60 5 0 7 4 4 8 -7
12 85 8 126 -6z m-1693 -26 c102 -53 77 -208 -36 -223 -73 -10 -133 43 -133
117 0 90 90 146 169 106z m2266 -60 c111 -85 94 -266 -30 -326 -95 -46 -210
-8 -255 85 -44 91 -8 208 77 255 58 31 157 24 208 -14z m-3286 -11 c33 -16 41
-33 41 -81 0 -28 -6 -38 -32 -54 -45 -27 -64 -25 -99 9 -40 40 -39 81 2 115
35 30 49 32 88 11z m396 -219 l29 -23 39 25 c50 33 66 20 44 -37 l-17 -40 35
-27 c50 -38 46 -54 -15 -54 -49 0 -49 0 -61 -40 -15 -50 -37 -50 -54 0 -11 32
-16 35 -56 40 -57 6 -63 30 -15 59 l35 22 -13 44 c-19 62 -3 73 49 31z m1970
-65 c6 -34 12 -42 41 -51 46 -16 46 -44 -2 -62 -33 -11 -35 -15 -29 -44 4 -22
1 -35 -11 -45 -14 -12 -20 -10 -41 15 -22 26 -28 28 -56 19 -56 -17 -73 4 -41
52 15 23 14 26 -6 56 -19 26 -21 33 -8 45 10 10 22 12 46 5 29 -9 33 -7 49 20
25 42 50 38 58 -10z"/>
<path d="M1444 2730 c-99 -49 -129 -180 -62 -270 26 -35 79 -63 104 -53 12 4
15 3 10 -5 -12 -19 63 -14 110 7 135 61 137 253 3 321 -49 26 -113 25 -165 0z"/>
<path d="M3159 2747 c-156 -44 -238 -215 -173 -364 l17 -39 58 4 c44 3 63 0
81 -13 19 -15 20 -16 3 -11 -19 7 -19 6 -2 -11 12 -12 37 -18 88 -21 l71 -4
-4 -29 c-3 -20 0 -29 9 -29 9 0 13 15 14 48 1 48 3 48 13 -1 6 -27 7 -27 35
-12 65 33 131 147 131 225 0 89 -71 199 -153 239 -55 26 -131 34 -188 18z
m152 -154 c16 -16 29 -35 29 -44 0 -22 -38 -69 -56 -69 -8 0 -14 -4 -14 -10 0
-5 7 -10 16 -10 8 0 12 -4 9 -10 -3 -5 2 -10 12 -10 11 0 14 -3 7 -8 -6 -4
-19 -21 -27 -39 -21 -40 -61 -50 -113 -28 -22 9 -47 26 -57 38 l-19 22 6 -27
c6 -24 3 -28 -16 -29 -13 0 -33 -2 -46 -3 -29 -3 -46 26 -36 62 4 15 6 33 5
40 -2 11 35 18 79 14 8 -1 22 2 30 5 9 4 -6 9 -34 12 -60 7 -79 30 -52 60 11
12 15 21 11 21 -5 0 -1 6 9 13 10 8 29 12 41 9 13 -2 26 1 29 7 4 6 39 11 82
11 69 0 78 -3 105 -27z"/>
<path d="M1940 2299 c-58 -23 -78 -95 -40 -137 23 -25 39 -30 20 -7 -9 11 -9
15 -1 15 7 0 9 5 6 11 -5 7 5 8 29 4 22 -5 42 -3 50 4 19 16 31 -16 14 -37
-10 -12 -8 -12 13 2 32 20 40 54 24 93 -21 50 -68 71 -115 52z"/>
<path d="M4224 2048 c4 -79 9 -175 12 -215 l6 -71 50 -4 c27 -1 51 -1 53 2 1
3 6 95 10 205 4 110 8 205 8 210 1 6 -30 11 -72 13 l-74 3 7 -143z"/>
<path d="M3712 2119 c-141 -27 -214 -134 -211 -307 1 -37 4 -57 6 -44 4 20 10
22 60 22 51 0 55 -2 50 -21 -3 -11 1 -35 8 -53 8 -19 11 -36 8 -40 -4 -3 -30
-6 -60 -6 -29 0 -53 -4 -53 -10 0 -6 30 -10 70 -10 53 0 68 -3 64 -13 -2 -7 5
-22 16 -32 16 -14 18 -21 8 -27 -8 -6 -5 -7 10 -3 13 4 22 2 22 -4 0 -6 8 -11
18 -11 10 0 24 -6 31 -12 11 -11 12 -10 6 1 -5 9 -4 12 3 7 27 -17 8 -26 -55
-26 -36 0 -64 -3 -60 -6 6 -6 220 -9 262 -3 11 1 -2 5 -30 8 -44 5 -50 9 -52
31 -1 14 0 19 3 13 11 -26 105 43 96 70 -1 5 26 7 60 6 l63 -3 13 45 c8 28 12
81 10 149 -3 94 -7 111 -33 159 -35 64 -83 98 -162 117 -64 15 -107 16 -171 3z
m210 -68 c-3 -12 0 -12 12 -2 10 9 16 9 21 1 4 -6 12 -9 19 -7 7 3 13 -7 14
-25 4 -48 -6 -68 -34 -68 -13 0 -24 -4 -24 -10 0 -6 28 -10 63 -10 53 0 63 -3
64 -17 0 -10 3 -37 7 -60 l6 -43 -55 0 -55 0 -2 38 c0 20 -4 1 -7 -43 -12
-143 -68 -211 -168 -203 -104 9 -147 73 -148 220 0 80 -13 97 -14 21 l-1 -33
-55 0 c-61 0 -62 2 -49 82 l6 37 67 3 66 3 3 55 c2 30 8 60 14 67 16 20 254
14 250 -6z"/>
<path d="M3734 1965 c-27 -18 -41 -56 -47 -122 l-4 -53 61 0 c43 0 57 -3 46
-10 -8 -5 -13 -10 -10 -11 3 0 13 -2 23 -4 9 -2 17 3 17 11 0 10 12 14 40 14
48 0 54 17 8 22 -29 3 -33 7 -36 37 -2 19 -1 45 3 58 l6 25 19 -25 c11 -14 20
-40 20 -58 0 -22 3 -30 10 -23 18 18 -5 106 -35 131 -31 27 -90 31 -121 8z"/>
<path d="M3018 1965 c-43 -14 -99 -67 -85 -81 2 -2 12 7 21 21 l16 25 198 0
c191 0 198 1 198 20 0 18 -7 20 -71 20 -38 0 -106 2 -150 5 -56 3 -94 0 -127
-10z"/>
<path d="M3037 1594 c3 -8 22 -18 44 -24 27 -8 37 -15 33 -25 -4 -11 -22 -15
-60 -15 -30 0 -54 -4 -54 -10 0 -5 -17 -17 -37 -25 -40 -17 -73 -43 -73 -57 0
-5 10 0 22 12 26 24 37 25 45 4 11 -29 -14 -62 -49 -67 -23 -3 -17 -4 20 -5
36 -1 62 -9 81 -23 15 -11 47 -23 69 -26 32 -4 42 -10 42 -24 0 -11 5 -19 10
-19 6 0 10 4 10 9 0 5 20 14 44 20 25 6 51 20 60 32 10 15 26 21 55 22 35 2
42 6 51 31 18 52 12 110 -12 133 -40 36 -65 43 -160 43 -60 0 -102 5 -120 14
-23 12 -26 12 -21 0z m237 -84 c23 -8 26 -15 26 -54 0 -35 -5 -48 -20 -56 -14
-8 -20 -8 -20 1 0 6 -13 -1 -30 -14 -33 -28 -117 -44 -172 -33 -76 15 -112 94
-66 143 20 22 29 23 139 23 65 0 129 -4 143 -10z"/>
<path d="M1300 1819 l0 -304 159 0 c88 0 163 3 167 8 4 4 -40 7 -98 7 -111 0
-119 3 -118 48 1 15 2 15 11 0 8 -14 24 -18 79 -18 58 0 73 4 98 25 16 14 29
33 28 42 -2 26 93 32 111 7 11 -15 13 -9 13 44 0 49 -4 66 -22 86 -24 26 -92
59 -102 49 -3 -3 -49 -5 -103 -4 -98 2 -113 8 -112 41 0 8 4 5 9 -7 10 -25 25
-30 36 -12 3 6 22 9 40 7 19 -2 34 0 34 5 0 5 6 5 13 -1 10 -9 19 -7 35 4 12
8 20 19 17 24 -3 4 2 13 10 20 8 7 15 19 15 27 0 11 13 14 57 12 31 -2 58 2
60 7 2 5 -22 11 -54 12 -32 1 -61 8 -65 15 -5 7 -8 3 -8 -13 0 -38 -26 -68
-68 -80 -82 -22 -129 -2 -118 52 l6 28 -60 0 -60 0 3 60 2 60 123 0 c89 0 124
-3 126 -12 2 -7 7 -22 11 -33 7 -19 8 -18 14 5 8 31 40 37 81 16 19 -9 28 -10
24 -3 -4 7 -2 7 7 -1 8 -7 14 -16 15 -20 0 -4 6 -18 12 -32 11 -25 11 -25 11
8 1 42 -39 85 -95 102 -21 6 -108 14 -191 17 l-153 6 0 -304z m289 -56 c25
-22 31 -35 31 -68 -1 -72 -38 -97 -139 -94 l-69 2 9 31 c5 17 9 32 9 33 0 2
-27 3 -60 3 l-60 0 0 60 0 60 124 0 c121 0 125 -1 155 -27z"/>
<path d="M1910 1888 c-1 -46 -2 -149 -3 -231 l-2 -147 66 0 66 0 2 230 1 230
-65 0 -65 0 0 -82z"/>
<path d="M2190 1810 l0 -310 65 0 65 0 -4 230 c-3 182 -2 230 9 230 7 0 42
-57 78 -127 36 -71 90 -174 119 -230 l53 -103 103 0 102 0 0 310 0 310 -60 0
c-50 0 -60 -3 -61 -17 -1 -10 0 -112 1 -226 2 -249 -3 -256 -81 -107 -28 52
-80 152 -117 223 l-67 127 -102 0 -103 0 0 -310z"/>
<path d="M771 1844 c-26 -34 -27 -68 -1 -94 60 -60 155 -6 128 73 -19 53 -92
65 -127 21z"/>
<path d="M4672 1847 c-28 -29 -28 -57 -1 -91 15 -19 30 -26 54 -26 36 0 75 36
75 70 0 10 -9 29 -21 44 -27 34 -77 36 -107 3z"/>
<path d="M2410 1281 c-78 -25 -138 -81 -172 -159 -24 -54 -21 -158 6 -213 45
-93 135 -149 241 -149 104 0 195 55 243 145 23 44 28 171 8 218 -22 51 -81
114 -130 139 -44 23 -153 33 -196 19z m133 -160 c35 -42 53 -121 35 -157 -15
-32 -52 -61 -90 -70 -24 -5 -28 -3 -28 15 0 15 9 25 30 33 17 5 35 18 40 28
13 24 13 60 0 60 -5 0 -10 -4 -10 -10 0 -18 -49 -42 -74 -36 -36 9 -60 67 -46
110 20 61 101 76 143 27z"/>
<path d="M1879 1268 c-44 -15 -62 -75 -34 -114 38 -55 135 -26 135 39 0 61
-44 94 -101 75z"/>
<path d="M4040 1228 c-33 -17 -52 -36 -69 -68 -84 -160 131 -306 256 -174 68
73 48 191 -42 241 -51 29 -89 29 -145 1z"/>
</g>
</svg>
