<?xml version="1.0" standalone="no"?>
<!DOCTYPE svg PUBLIC "-//W3C//DTD SVG 20010904//EN"
 "http://www.w3.org/TR/2001/REC-SVG-20010904/DTD/svg10.dtd">
<svg version="1.0" xmlns="http://www.w3.org/2000/svg"
 width="540.000000pt" height="360.000000pt" viewBox="0 0 540.000000 360.000000"
 preserveAspectRatio="xMidYMid meet">

<g transform="translate(0.000000,360.000000) scale(0.100000,-0.100000)"
fill="#000000" stroke="none">
<path d="M0 1800 l0 -1800 2700 0 2700 0 0 1800 0 1800 -2700 0 -2700 0 0
-1800z m3825 1124 c22 -14 26 -14 54 2 41 24 58 9 43 -35 -10 -27 -8 -33 15
-51 34 -26 24 -50 -21 -50 -30 0 -35 -4 -41 -30 -4 -20 -13 -30 -25 -30 -11 0
-22 11 -29 30 -8 25 -16 30 -41 30 -43 0 -51 27 -16 55 24 19 26 25 16 49 -17
46 2 58 45 30z m-2197 -153 c81 -41 142 -154 127 -234 -11 -60 -61 -134 -108
-162 -197 -115 -419 85 -323 291 53 115 192 162 304 105z m1737 -4 c60 -30
114 -85 146 -147 35 -66 34 -194 -1 -265 -93 -189 -346 -235 -495 -89 -68 66
-90 120 -90 224 0 65 5 96 21 130 24 51 93 126 133 142 14 6 42 17 61 25 54
21 164 12 225 -20z m-1239 -111 c38 -38 43 -72 17 -116 -65 -111 -231 -14
-169 99 33 59 102 67 152 17z m2293 4 c31 -16 46 -65 31 -100 -15 -35 -37 -50
-75 -50 -38 0 -60 15 -75 50 -14 34 0 83 29 100 21 12 68 13 90 0z m-1841
-100 c2 -27 10 -39 33 -53 37 -21 34 -39 -9 -52 -26 -7 -32 -14 -32 -36 0 -41
-24 -55 -49 -28 -12 13 -21 26 -21 30 0 4 -17 5 -37 2 -34 -4 -41 -1 -62 28
l-24 32 32 -6 c39 -8 51 12 27 48 -23 35 -12 48 34 41 29 -5 41 -2 55 14 27
30 49 21 53 -20z m1291 -94 c36 -28 30 -105 -9 -126 -70 -38 -142 30 -114 105
14 37 87 49 123 21z m-3053 -37 l32 -31 40 23 c22 13 43 21 46 18 3 -3 -2 -25
-11 -48 l-17 -43 32 -27 c18 -14 32 -29 32 -33 0 -5 -22 -8 -48 -8 -47 0 -50
-1 -67 -40 -20 -45 -30 -44 -40 3 -10 46 -23 57 -66 57 -50 0 -49 13 1 42 22
13 38 28 36 35 -11 28 -17 83 -10 83 4 0 22 -14 40 -31z m1208 -93 c73 -30
102 -107 67 -179 -28 -58 -71 -82 -137 -74 -39 4 -55 12 -81 41 -18 20 -34 46
-34 58 -5 81 13 121 72 150 41 22 69 22 113 4z m2377 -251 c-2 -77 -6 -192
-10 -255 l-6 -115 -92 -3 c-51 -1 -94 -1 -94 0 -5 12 -25 496 -22 506 4 9 33
12 117 10 l111 -3 -4 -140z m-595 99 c7 -9 14 -10 21 -3 8 8 17 8 31 0 11 -6
28 -11 37 -11 27 0 125 -52 145 -77 13 -17 28 -23 55 -23 21 0 34 -4 30 -10
-3 -5 -2 -10 3 -10 8 0 23 -38 24 -60 0 -3 4 -13 9 -22 8 -15 5 -18 -15 -18
-23 0 -25 -3 -19 -32 8 -42 13 -48 13 -17 0 19 2 21 10 9 12 -19 13 -63 1 -56
-5 4 -8 -2 -6 -11 1 -10 0 -22 -3 -28 -4 -5 -7 -26 -8 -46 -5 -103 -61 -211
-134 -260 -60 -40 -111 -53 -210 -54 -183 0 -284 77 -335 255 l-15 55 5 -47 5
-48 -59 0 c-65 0 -77 6 -57 29 8 9 17 30 21 46 6 29 5 29 -14 -7 -23 -40 -69
-79 -116 -97 l-30 -11 35 5 c19 3 59 10 89 15 29 5 72 5 95 2 l41 -8 0 -54 c0
-52 -1 -55 -26 -58 -25 -3 -26 -5 -21 -48 11 -97 -57 -188 -165 -221 -80 -24
-232 -24 -295 0 -51 20 -108 76 -108 107 0 18 -7 20 -62 21 -45 0 -57 3 -43 9
11 5 16 9 10 10 -5 0 9 10 33 21 23 11 42 25 43 32 1 7 2 21 3 32 1 17 9 21
49 23 51 3 54 7 31 37 -16 20 -16 20 -9 -2 6 -21 3 -23 -34 -23 l-39 0 -1 59
c0 64 7 71 70 71 40 0 51 19 27 44 -11 11 -25 33 -30 49 -6 15 -14 27 -19 27
-5 0 0 -18 11 -40 11 -22 17 -40 13 -40 -4 0 2 -7 13 -15 18 -13 16 -14 -23
-15 l-41 0 -4 60 c-3 57 -2 60 20 60 13 0 20 4 17 10 -3 6 -17 10 -30 10 -26
0 -28 10 -18 83 4 35 7 37 39 37 19 0 34 5 34 10 0 6 -3 9 -7 9 -5 -1 -20 -1
-35 0 -26 1 -28 4 -28 40 0 22 4 42 10 46 5 3 7 12 3 20 -4 12 4 15 38 15 54
0 64 -7 74 -45 8 -31 9 -30 19 18 l6 27 155 0 155 0 6 -26 6 -25 12 23 c11 21
18 23 114 26 57 1 102 7 102 12 0 6 -9 10 -19 10 -10 0 -22 7 -25 16 -8 20 -8
39 0 32 3 -4 22 5 41 18 20 13 44 24 54 24 11 0 19 4 19 9 0 23 187 19 206 -5z
m-2417 -1 c9 -17 11 -17 24 1 12 17 24 18 125 14 63 -2 117 -9 125 -16 7 -7
17 -9 20 -5 4 3 7 1 7 -5 0 -6 7 -9 17 -5 12 5 14 3 8 -8 -8 -12 -6 -12 8 0
15 12 17 10 17 -20 1 -52 19 -69 74 -69 25 0 46 -4 46 -9 0 -5 10 -7 23 -4 18
4 19 3 7 -6 -13 -9 -11 -11 7 -11 12 0 24 -6 26 -12 4 -9 8 -10 14 -3 4 6 36
11 70 11 44 1 68 6 81 17 10 10 25 17 33 17 11 0 12 -2 1 -9 -8 -4 -13 -17
-12 -27 4 -34 0 -44 -15 -44 -12 0 -14 -37 -15 -256 0 -141 -2 -260 -6 -265
-8 -14 -188 -11 -202 3 -9 9 -12 82 -13 263 -1 137 -3 242 -6 233 -5 -21 -49
-25 -56 -5 -3 6 -6 1 -6 -14 -1 -14 -15 -47 -31 -73 l-31 -48 28 -21 c15 -12
34 -21 43 -19 11 2 12 1 2 -6 -10 -7 -11 -19 -3 -55 6 -25 8 -53 5 -61 -5 -12
0 -16 20 -16 26 0 27 -2 22 -47 -2 -27 -5 -54 -5 -61 -1 -8 -10 -12 -23 -10
-13 2 -22 8 -22 13 1 6 5 30 9 55 l6 45 -25 -52 c-29 -62 -90 -106 -170 -123
-29 -7 -117 -10 -206 -8 l-155 3 -5 343 c-3 189 -3 347 0 351 28 40 121 56
139 24z m388 3 c-3 -8 1 -17 9 -20 8 -3 20 -19 25 -35 6 -17 18 -32 27 -34 9
-3 -4 -5 -30 -6 -32 -1 -48 3 -49 12 -2 23 3 82 8 90 8 13 15 8 10 -7z m733
-212 c52 -100 100 -182 105 -183 6 -1 10 58 11 157 1 86 2 169 3 185 l1 27 90
0 90 0 0 -57 c2 -347 -2 -628 -9 -633 -5 -3 -63 -4 -129 -2 l-120 3 -94 181
c-51 100 -98 183 -103 185 -6 2 -9 -66 -7 -182 l2 -185 -95 0 -95 0 0 338 c0
186 3 342 7 346 4 3 61 5 127 4 l121 -3 95 -181z m605 151 c-1 -14 -5 -28 -7
-31 -11 -10 -94 -14 -123 -5 l-30 9 31 1 c16 1 39 9 50 19 11 10 25 17 31 15
7 -3 20 0 30 6 10 6 19 11 20 11 1 0 0 -11 -2 -25z m100 -28 c45 -4 44 -4 -9
-3 -43 1 -61 5 -64 16 -4 12 -2 13 9 3 8 -6 37 -14 64 -16z m-1985 3 c0 -5 -8
-10 -17 -10 -15 0 -16 2 -3 10 19 12 20 12 20 0z m-5 -127 c-3 -13 -10 -21
-16 -17 -8 5 -8 9 1 14 7 4 9 17 5 33 -4 14 -3 32 2 39 10 17 17 -34 8 -69z
m896 0 c-11 -5 -11 -7 0 -14 11 -7 10 -9 -3 -9 -10 0 -18 7 -18 15 0 8 8 15
18 14 12 0 13 -2 3 -6z m-891 -105 c0 -49 -3 -58 -17 -57 -10 0 -13 3 -7 5 6
3 8 24 4 58 -4 39 -2 53 7 53 9 0 13 -18 13 -59z m604 13 c-1 -26 3 -52 8 -58
8 -10 1 -13 -31 -13 -46 0 -67 24 -39 44 15 11 34 54 30 68 -1 4 6 6 16 5 14
-1 17 -10 16 -46z m-943 16 c38 -26 64 -84 55 -122 -26 -103 -174 -127 -221
-35 -58 111 63 226 166 157z m1235 -12 c0 -18 -3 -32 -8 -29 -15 9 -8 -14 9
-32 13 -13 14 -16 3 -12 -21 6 -34 50 -26 82 9 37 21 32 22 -9z m2673 10 c88
-75 40 -215 -74 -215 -53 0 -98 34 -115 85 -25 75 34 155 115 155 32 0 51 -7
74 -25z m-3575 -122 c6 -21 2 -80 -6 -88 -3 -3 -6 15 -6 40 -1 25 -4 50 -7 55
-4 6 -2 10 4 10 5 0 12 -8 15 -17z m896 7 c-9 -6 -10 -10 -3 -10 19 0 12 -96
-7 -97 -12 -1 -14 10 -12 58 3 47 7 59 20 59 15 0 15 -2 2 -10z m2049 -20 c-6
-16 -13 -30 -15 -30 -2 0 -3 14 -2 30 1 17 8 30 15 30 9 0 9 -7 2 -30z m-2939
-120 c0 -5 -2 -10 -4 -10 -3 0 -8 5 -11 10 -3 6 -1 10 4 10 6 0 11 -4 11 -10z
m890 -14 c-5 -13 -6 -27 -3 -30 9 -9 12 -56 3 -56 -19 0 -23 71 -6 98 12 20
16 13 6 -12z m2220 -1 c37 -19 50 -43 50 -92 -1 -103 -139 -142 -186 -52 -29
57 -15 117 34 143 35 20 66 20 102 1z m-3110 -45 c0 -5 -2 -10 -4 -10 -3 0 -8
5 -11 10 -3 6 -1 10 4 10 6 0 11 -4 11 -10z m1318 -217 c-10 -2 -26 -2 -35 0
-10 3 -2 5 17 5 19 0 27 -2 18 -5z m222 -19 c0 -19 -4 -25 -14 -21 -8 3 -17 1
-20 -6 -2 -7 -5 0 -5 15 -1 16 -8 28 -18 31 -10 3 -1 5 20 6 34 1 37 -1 37
-25z m69 0 c6 -14 8 -30 5 -36 -4 -6 -2 -8 3 -5 6 4 15 -5 21 -21 l10 -28 -42
5 c-39 6 -41 8 -44 45 -2 21 -1 44 2 52 9 22 32 16 45 -12z m-286 -7 c-4 -8
-1 -7 10 1 9 8 21 10 28 6 7 -4 26 -9 43 -11 50 -5 66 -13 66 -32 0 -9 6 -23
13 -30 10 -11 10 -13 0 -7 -22 12 -14 -12 13 -41 46 -49 67 -110 68 -193 0
-129 -59 -227 -172 -282 -89 -44 -179 -46 -263 -7 -203 95 -247 362 -84 512
37 34 121 77 152 77 13 0 23 3 23 8 0 4 25 8 55 9 41 1 54 -1 48 -10z m1099
-5 c31 -11 39 -21 52 -59 20 -59 20 -78 -1 -114 -21 -35 -63 -53 -106 -45 -41
8 -62 29 -81 82 -8 21 -15 33 -15 26 -1 -7 -5 -10 -11 -7 -12 7 -14 26 -2 24
18 -3 32 2 32 11 0 6 -7 10 -15 10 -8 0 -15 4 -15 10 0 17 23 60 32 60 5 0 7
4 4 8 -7 12 85 8 126 -6z m-1693 -26 c102 -53 77 -208 -36 -223 -73 -10 -133
43 -133 117 0 90 90 146 169 106z m806 -35 c-3 -6 -11 -11 -16 -11 -5 0 -4 6
3 14 14 16 24 13 13 -3z m1460 -25 c111 -85 94 -266 -30 -326 -95 -46 -210 -8
-255 85 -44 91 -8 208 77 255 58 31 157 24 208 -14z m-3286 -11 c33 -16 41
-33 41 -81 0 -28 -6 -38 -32 -54 -45 -27 -64 -25 -99 9 -40 40 -39 81 2 115
35 30 49 32 88 11z m396 -219 l29 -23 39 25 c50 33 66 20 44 -37 l-17 -40 35
-27 c50 -38 46 -54 -15 -54 -49 0 -49 0 -61 -40 -15 -50 -37 -50 -54 0 -11 32
-16 35 -56 40 -57 6 -63 30 -15 59 l35 22 -13 44 c-19 62 -3 73 49 31z m1898
-33 c-7 -2 -19 -2 -25 0 -7 3 -2 5 12 5 14 0 19 -2 13 -5z m72 -32 c6 -34 12
-42 41 -51 46 -16 46 -44 -2 -62 -33 -11 -35 -15 -29 -44 4 -22 1 -35 -11 -45
-14 -12 -20 -10 -41 15 -22 26 -28 28 -56 19 -56 -17 -73 4 -41 52 15 23 14
26 -6 56 -19 26 -21 33 -8 45 10 10 22 12 46 5 29 -9 33 -7 49 20 25 42 50 38
58 -10z"/>
<path d="M3836 2845 c-4 -10 1 -15 16 -15 17 0 18 2 8 15 -7 8 -14 15 -15 15
-2 0 -5 -7 -9 -15z"/>
<path d="M1444 2730 c-99 -49 -129 -180 -62 -270 26 -35 79 -63 104 -53 12 4
15 3 10 -5 -12 -19 63 -14 110 7 135 61 137 253 3 321 -49 26 -113 25 -165 0z
m110 -141 c15 -45 26 -83 24 -84 -2 -2 -11 -5 -21 -7 -15 -2 -23 9 -39 50 -17
44 -22 51 -31 38 -8 -11 -17 -13 -26 -7 -13 8 -12 15 4 45 17 31 28 39 56 45
4 0 18 -36 33 -80z m86 -113 c0 -2 -8 -10 -17 -17 -16 -13 -17 -12 -4 4 13 16
21 21 21 13z m-30 -51 c-9 -8 -31 -17 -50 -20 l-35 -6 40 20 c49 24 64 26 45
6z"/>
<path d="M3159 2747 c-156 -44 -238 -215 -173 -364 l17 -39 58 4 c44 3 63 0
81 -13 19 -15 20 -16 3 -11 -19 7 -19 6 -2 -11 12 -12 37 -18 88 -21 l71 -4
-4 -29 c-3 -20 0 -29 9 -29 9 0 13 15 14 48 1 48 3 48 13 -1 6 -27 7 -27 35
-12 65 33 131 147 131 225 0 89 -71 199 -153 239 -55 26 -131 34 -188 18z
m152 -154 c16 -16 29 -35 29 -44 0 -22 -38 -69 -56 -69 -8 0 -14 -4 -14 -10 0
-5 7 -10 16 -10 8 0 12 -4 9 -10 -3 -5 2 -10 12 -10 11 0 14 -3 7 -8 -6 -4
-19 -21 -27 -39 -21 -40 -61 -50 -113 -28 -22 9 -47 26 -57 38 l-19 22 6 -27
c6 -24 3 -28 -16 -29 -13 0 -33 -2 -46 -3 -29 -3 -46 26 -36 62 4 15 6 33 5
40 -2 11 35 18 79 14 8 -1 22 2 30 5 9 4 -6 9 -34 12 -60 7 -79 30 -52 60 11
12 15 21 11 21 -5 0 -1 6 9 13 10 8 29 12 41 9 13 -2 26 1 29 7 4 6 39 11 82
11 69 0 78 -3 105 -27z m28 20 c-3 -20 2 -33 12 -30 15 3 22 -40 7 -49 -6 -4
-8 -3 -5 3 4 6 -3 22 -14 37 -11 14 -17 30 -14 36 7 12 16 13 14 3z m40 -329
c-13 -16 -39 -19 -39 -5 0 5 8 8 18 7 9 0 16 5 14 12 -1 8 2 11 8 7 8 -5 7
-11 -1 -21z"/>
<path d="M3230 2552 c0 -4 9 -8 20 -9 11 -1 18 2 15 8 -7 11 -35 12 -35 1z"/>
<path d="M3160 2520 c0 -5 5 -10 11 -10 5 0 7 5 4 10 -3 6 -8 10 -11 10 -2 0
-4 -4 -4 -10z"/>
<path d="M3177 2453 c-13 -13 -7 -18 22 -18 19 0 27 4 24 13 -5 13 -35 17 -46
5z"/>
<path d="M2011 2624 c-12 -15 -21 -30 -21 -34 0 -4 9 -19 21 -34 38 -48 109
-27 109 33 0 59 -72 82 -109 35z"/>
<path d="M4340 2611 c-7 -15 -5 -24 8 -41 32 -40 85 -4 62 41 -14 25 -56 25
-70 0z"/>
<path d="M2510 2490 c0 -5 5 -10 10 -10 6 0 10 5 10 10 0 6 -4 10 -10 10 -5 0
-10 -4 -10 -10z"/>
<path d="M3786 2434 c-20 -20 -20 -27 3 -55 16 -21 22 -22 45 -11 15 7 26 20
26 31 0 23 -25 51 -45 51 -7 0 -21 -7 -29 -16z"/>
<path d="M806 2382 c5 -26 2 -32 -22 -46 l-29 -15 26 -1 c32 0 49 -17 50 -49
0 -25 1 -25 17 7 14 29 19 32 46 26 l31 -6 -23 25 c-20 21 -22 28 -12 47 13
25 5 39 -12 22 -17 -17 -38 -15 -60 5 -17 15 -18 15 -12 -15z"/>
<path d="M1940 2299 c-58 -23 -78 -95 -40 -137 23 -25 39 -30 20 -7 -9 11 -9
15 -1 15 7 0 9 5 6 11 -5 7 5 8 29 4 22 -5 42 -3 50 4 19 16 31 -16 14 -37
-10 -12 -8 -12 13 2 32 20 40 54 24 93 -21 50 -68 71 -115 52z m57 -105 c-3
-3 -12 -4 -19 -1 -8 3 -5 6 6 6 11 1 17 -2 13 -5z"/>
<path d="M4224 2048 c4 -79 9 -175 12 -215 l6 -71 50 -4 c27 -1 51 -1 53 2 1
3 6 95 10 205 4 110 8 205 8 210 1 6 -30 11 -72 13 l-74 3 7 -143z"/>
<path d="M3712 2119 c-141 -27 -214 -134 -211 -307 1 -37 4 -57 6 -44 4 20 10
22 60 22 51 0 55 -2 50 -21 -3 -11 1 -35 8 -53 8 -19 11 -36 8 -40 -4 -3 -30
-6 -60 -6 -29 0 -53 -4 -53 -10 0 -6 30 -10 70 -10 53 0 68 -3 64 -13 -2 -7 5
-22 16 -32 16 -14 18 -21 8 -27 -8 -6 -5 -7 10 -3 13 4 22 2 22 -4 0 -6 8 -11
18 -11 10 0 24 -6 31 -12 11 -11 12 -10 6 1 -5 9 -4 12 3 7 27 -17 8 -26 -55
-26 -36 0 -64 -3 -60 -6 6 -6 220 -9 262 -3 11 1 -2 5 -30 8 -44 5 -50 9 -52
31 -1 14 0 19 3 13 11 -26 105 43 96 70 -1 5 26 7 60 6 l63 -3 13 45 c8 28 12
81 10 149 -3 94 -7 111 -33 159 -35 64 -83 98 -162 117 -64 15 -107 16 -171 3z
m61 -26 c-13 -2 -33 -2 -45 0 -13 2 -3 4 22 4 25 0 35 -2 23 -4z m149 -42 c-3
-12 0 -12 12 -2 10 9 16 9 21 1 4 -6 12 -9 19 -7 7 3 13 -7 14 -25 4 -48 -6
-68 -34 -68 -13 0 -24 -4 -24 -10 0 -6 28 -10 63 -10 53 0 63 -3 64 -17 0 -10
3 -37 7 -60 l6 -43 -55 0 -55 0 -2 38 c0 20 -4 1 -7 -43 -12 -143 -68 -211
-168 -203 -104 9 -147 73 -148 220 0 80 -13 97 -14 21 l-1 -33 -55 0 c-61 0
-62 2 -49 82 l6 37 67 3 66 3 3 55 c2 30 8 60 14 67 16 20 254 14 250 -6z
m-281 2 c6 -33 6 -61 2 -80 -5 -20 -11 -23 -59 -23 -58 0 -63 5 -38 36 8 10
12 13 8 5 -5 -9 -3 -12 5 -7 6 4 9 12 5 17 -8 14 35 59 58 59 10 0 19 -3 19
-7z m397 -90 c14 -12 14 -13 0 -13 -16 0 -29 21 -27 43 0 7 3 5 6 -3 3 -8 12
-21 21 -27z m-54 -189 c11 -29 6 -81 -9 -94 -23 -19 -27 -7 -20 54 7 56 17 70
29 40z m86 0 c0 -9 -5 -12 -12 -8 -9 5 -10 4 -3 -5 26 -28 -6 -104 -36 -85
-10 6 -12 74 -3 98 8 21 54 21 54 0z"/>
<path d="M3734 1965 c-27 -18 -41 -56 -47 -122 l-4 -53 61 0 c43 0 57 -3 46
-10 -8 -5 -13 -10 -10 -11 3 0 13 -2 23 -4 9 -2 17 3 17 11 0 10 12 14 40 14
48 0 54 17 8 22 -29 3 -33 7 -36 37 -2 19 -1 45 3 58 l6 25 19 -25 c11 -14 20
-40 20 -58 0 -22 3 -30 10 -23 18 18 -5 106 -35 131 -31 27 -90 31 -121 8z
m74 -12 c-10 -2 -26 -2 -35 0 -10 3 -2 5 17 5 19 0 27 -2 18 -5z m-63 -109 c0
-29 -4 -34 -22 -34 -17 0 -23 6 -23 23 0 12 4 28 9 36 7 11 11 10 20 -5 14
-25 14 -9 0 19 -10 19 -9 20 2 9 8 -7 14 -29 14 -48z"/>
<path d="M3881 1744 c0 -11 3 -14 6 -6 3 7 2 16 -1 19 -3 4 -6 -2 -5 -13z"/>
<path d="M3745 1660 c3 -5 26 -10 50 -10 24 0 47 5 50 10 4 6 -15 10 -50 10
-35 0 -54 -4 -50 -10z"/>
<path d="M3018 1965 c-43 -14 -99 -67 -85 -81 2 -2 12 7 21 21 l16 25 198 0
c191 0 198 1 198 20 0 18 -7 20 -71 20 -38 0 -106 2 -150 5 -56 3 -94 0 -127
-10z m177 -13 c-6 -5 -44 -5 -85 -2 l-75 7 85 1 c46 1 80 -2 75 -6z"/>
<path d="M3416 1941 c-3 -5 5 -11 19 -13 17 -4 25 -1 25 8 0 15 -36 19 -44 5z"/>
<path d="M3372 1877 c-12 -7 -20 -16 -16 -19 8 -8 54 12 54 24 0 11 -11 10
-38 -5z"/>
<path d="M3097 1873 c-14 -13 -6 -25 8 -13 13 11 15 8 15 -14 0 -15 -7 -29
-15 -32 -23 -9 -18 -19 9 -20 22 -2 24 2 23 42 0 34 -4 44 -17 44 -9 0 -20 -3
-23 -7z"/>
<path d="M2920 1799 c0 -5 6 -9 14 -9 8 0 18 -15 22 -32 l8 -33 5 30 c5 25 12
31 41 36 20 4 26 7 15 9 -67 7 -105 7 -105 -1z"/>
<path d="M3190 1789 c0 -8 -9 -25 -20 -37 -29 -31 -82 -30 -108 3 -24 30 -32
32 -25 5 3 -11 10 -20 15 -20 5 0 6 -5 2 -12 -4 -7 -3 -8 4 -4 7 4 12 1 12 -9
0 -9 5 -13 10 -10 6 3 16 3 23 -2 19 -12 41 -9 57 7 14 14 14 14 5 0 -9 -13
-8 -13 8 -1 9 8 15 16 13 18 -2 3 0 18 6 34 9 26 14 29 54 29 24 0 44 -4 44
-10 0 -5 5 -10 10 -10 6 0 10 8 10 18 0 14 -10 17 -60 17 -48 0 -60 -3 -60
-16z"/>
<path d="M3360 1798 c0 -4 20 -8 45 -8 25 0 45 5 45 10 0 7 -19 10 -45 9 -25
-2 -45 -6 -45 -11z"/>
<path d="M3511 1714 c0 -11 3 -14 6 -6 3 7 2 16 -1 19 -3 4 -6 -2 -5 -13z"/>
<path d="M2967 1642 c-31 -33 -37 -52 -6 -21 11 11 35 27 52 34 31 14 31 14 6
15 -15 0 -36 -11 -52 -28z"/>
<path d="M3037 1594 c3 -8 22 -18 44 -24 27 -8 37 -15 33 -25 -4 -11 -22 -15
-60 -15 -30 0 -54 -4 -54 -10 0 -5 -17 -17 -37 -25 -40 -17 -73 -43 -73 -57 0
-5 10 0 22 12 26 24 37 25 45 4 11 -29 -14 -62 -49 -67 -23 -3 -17 -4 20 -5
36 -1 62 -9 81 -23 15 -11 47 -23 69 -26 32 -4 42 -10 42 -24 0 -11 5 -19 10
-19 6 0 10 4 10 9 0 5 20 14 44 20 25 6 51 20 60 32 10 15 26 21 55 22 35 2
42 6 51 31 18 52 12 110 -12 133 -40 36 -65 43 -160 43 -60 0 -102 5 -120 14
-23 12 -26 12 -21 0z m273 -49 c23 -13 17 -14 -72 -15 -81 0 -98 3 -98 15 0
20 134 20 170 0z m-36 -35 c23 -8 26 -15 26 -54 0 -35 -5 -48 -20 -56 -14 -8
-20 -8 -20 1 0 6 -13 -1 -30 -14 -33 -28 -117 -44 -172 -33 -76 15 -112 94
-66 143 20 22 29 23 139 23 65 0 129 -4 143 -10z m70 -31 c7 -35 -2 -79 -15
-79 -9 0 -11 7 -11 35 0 79 14 103 26 44z"/>
<path d="M3037 1433 c-3 -5 35 -8 84 -8 49 0 89 3 89 7 0 10 -167 10 -173 1z"/>
<path d="M1300 1819 l0 -304 159 0 c88 0 163 3 167 8 4 4 -40 7 -98 7 -111 0
-119 3 -118 48 1 15 2 15 11 0 8 -14 24 -18 79 -18 58 0 73 4 98 25 16 14 29
33 28 42 -2 26 93 32 111 7 11 -15 13 -9 13 44 0 49 -4 66 -22 86 -24 26 -92
59 -102 49 -3 -3 -49 -5 -103 -4 -98 2 -113 8 -112 41 0 8 4 5 9 -7 10 -25 25
-30 36 -12 3 6 22 9 40 7 19 -2 34 0 34 5 0 5 6 5 13 -1 10 -9 19 -7 35 4 12
8 20 19 17 24 -3 4 2 13 10 20 8 7 15 19 15 27 0 11 13 14 57 12 31 -2 58 2
60 7 2 5 -22 11 -54 12 -32 1 -61 8 -65 15 -5 7 -8 3 -8 -13 0 -38 -26 -68
-68 -80 -82 -22 -129 -2 -118 52 l6 28 -60 0 -60 0 3 60 2 60 123 0 c89 0 124
-3 126 -12 2 -7 7 -22 11 -33 7 -19 8 -18 14 5 8 31 40 37 81 16 19 -9 28 -10
24 -3 -4 7 -2 7 7 -1 8 -7 14 -16 15 -20 0 -4 6 -18 12 -32 11 -25 11 -25 11
8 1 42 -39 85 -95 102 -21 6 -108 14 -191 17 l-153 6 0 -304z m85 51 l0 -55
-37 -3 -38 -3 0 61 0 61 38 -3 37 -3 0 -55z m204 -107 c25 -22 31 -35 31 -68
-1 -72 -38 -97 -139 -94 l-69 2 9 31 c5 17 9 32 9 33 0 2 -27 3 -60 3 l-60 0
0 60 0 60 124 0 c121 0 125 -1 155 -27z m125 -85 c7 -5 4 -8 -6 -8 -12 0 -18
7 -17 23 0 15 2 17 6 7 3 -8 11 -18 17 -22z m-329 -88 l0 -55 -37 -3 -36 -3
-1 61 0 61 37 -3 37 -3 0 -55z"/>
<path d="M1412 1710 c0 -19 2 -27 5 -17 2 9 2 25 0 35 -3 9 -5 1 -5 -18z"/>
<path d="M1480 1725 c0 -9 13 -15 37 -17 27 -2 39 -8 41 -20 3 -15 -4 -18 -37
-18 -23 0 -41 -4 -41 -8 0 -5 19 -8 43 -8 40 1 42 3 45 34 3 34 1 36 -55 46
-24 4 -33 2 -33 -9z"/>
<path d="M1480 1971 c0 -6 15 -12 33 -14 l32 -4 -32 -1 c-47 -3 -41 -22 7 -22
33 0 40 4 40 19 0 10 -7 22 -16 25 -24 9 -64 7 -64 -3z"/>
<path d="M1910 1888 c-1 -46 -2 -149 -3 -231 l-2 -147 66 0 66 0 2 230 1 230
-65 0 -65 0 0 -82z m100 -108 c-8 -5 -10 -10 -5 -10 6 0 10 -22 10 -50 0 -42
-3 -50 -18 -50 -10 0 -15 5 -12 10 3 6 2 10 -4 10 -5 0 -13 -5 -17 -11 -10
-17 -24 11 -24 52 0 43 15 59 55 59 23 0 26 -3 15 -10z m-5 -150 c3 -11 3 -24
0 -30 -3 -5 -2 -10 3 -10 5 0 9 -12 8 -27 -1 -26 -4 -28 -48 -31 l-48 -3 10
26 c6 15 7 31 4 37 -3 5 5 12 17 16 l24 6 -25 7 c-23 6 -22 7 10 9 l35 3 -35
7 -35 7 37 2 c28 1 38 -3 43 -19z"/>
<path d="M1960 1751 c0 -11 -3 -26 -6 -35 -3 -9 -2 -16 4 -16 5 0 12 16 14 35
2 19 0 35 -4 35 -4 0 -8 -9 -8 -19z"/>
<path d="M2190 1810 l0 -310 65 0 65 0 -4 230 c-3 182 -2 230 9 230 7 0 42
-57 78 -127 36 -71 90 -174 119 -230 l53 -103 103 0 102 0 0 310 0 310 -60 0
c-50 0 -60 -3 -61 -17 -1 -10 0 -112 1 -226 2 -249 -3 -256 -81 -107 -28 52
-80 152 -117 223 l-67 127 -102 0 -103 0 0 -310z m550 200 c10 -6 11 -10 3
-10 -7 0 -13 -5 -13 -11 0 -6 6 -9 13 -6 8 3 13 -3 13 -14 0 -15 -7 -19 -36
-18 l-35 1 30 8 c28 7 28 8 5 9 -19 1 -21 4 -11 10 8 5 11 16 8 25 -7 18 1 20
23 6z m20 -140 l0 -60 -39 0 -38 0 4 46 c2 26 6 50 8 54 3 5 -1 11 -7 13 -7 3
6 6 30 6 l42 1 0 -60z m-33 -240 c-3 -11 -1 -20 5 -20 5 0 6 -5 2 -11 -5 -8
-9 -8 -14 1 -8 12 -2 50 7 50 3 0 3 -9 0 -20z m33 5 c0 -8 -2 -15 -4 -15 -2 0
-6 7 -10 15 -3 8 -1 15 4 15 6 0 10 -7 10 -15z m-20 -71 c-15 -17 -17 -17 -23
-1 -3 8 3 14 15 14 16 2 17 -1 8 -13z m15 -23 c-3 -6 -18 -10 -33 -10 -21 1
-22 2 -7 6 11 3 24 9 29 14 12 11 20 4 11 -10z"/>
<path d="M771 1844 c-26 -34 -27 -68 -1 -94 60 -60 155 -6 128 73 -19 53 -92
65 -127 21z"/>
<path d="M4672 1847 c-28 -29 -28 -57 -1 -91 15 -19 30 -26 54 -26 36 0 75 36
75 70 0 10 -9 29 -21 44 -27 34 -77 36 -107 3z"/>
<path d="M4247 1572 c-37 -41 -10 -92 48 -92 36 0 55 20 55 59 0 47 -70 69
-103 33z"/>
<path d="M2410 1281 c-78 -25 -138 -81 -172 -159 -24 -54 -21 -158 6 -213 45
-93 135 -149 241 -149 104 0 195 55 243 145 23 44 28 171 8 218 -22 51 -81
114 -130 139 -44 23 -153 33 -196 19z m133 -160 c35 -42 53 -121 35 -157 -15
-32 -52 -61 -90 -70 -24 -5 -28 -3 -28 15 0 15 9 25 30 33 17 5 35 18 40 28
13 24 13 60 0 60 -5 0 -10 -4 -10 -10 0 -18 -49 -42 -74 -36 -36 9 -60 67 -46
110 20 61 101 76 143 27z"/>
<path d="M2450 1095 c-18 -21 2 -65 29 -65 30 0 43 32 25 58 -18 26 -37 28
-54 7z"/>
<path d="M3584 1253 c-19 -14 -25 -43 -8 -43 8 0 12 5 9 10 -4 6 7 10 24 10
30 0 35 -7 32 -42 -1 -10 2 -18 8 -18 15 0 26 50 14 69 -11 17 -61 26 -79 14z"/>
<path d="M1879 1268 c-44 -15 -62 -75 -34 -114 38 -55 135 -26 135 39 0 61
-44 94 -101 75z"/>
<path d="M4040 1228 c-33 -17 -52 -36 -69 -68 -84 -160 131 -306 256 -174 68
73 48 191 -42 241 -51 29 -89 29 -145 1z m123 -85 c-4 -16 -7 -46 -6 -67 1
-44 -15 -66 -47 -66 -14 0 -20 5 -18 17 2 11 -7 19 -29 25 -25 6 -31 12 -26
26 11 29 87 91 111 92 20 0 21 -3 15 -27z"/>
<path d="M4090 1095 c-8 -9 -8 -15 -2 -15 12 0 26 19 19 26 -2 2 -10 -2 -17
-11z"/>
<path d="M872 1188 c-18 -18 -15 -35 10 -52 30 -21 60 -4 56 32 -2 20 -9 28
-28 30 -14 2 -31 -3 -38 -10z"/>
<path d="M1335 950 c5 -15 1 -26 -12 -35 -17 -14 -17 -14 5 -15 16 0 26 -7 30
-22 l5 -22 8 22 c5 14 17 22 31 22 21 1 21 2 5 11 -13 7 -15 17 -10 37 6 25 5
26 -11 13 -14 -12 -21 -12 -38 -2 -18 11 -19 10 -13 -9z"/>
<path d="M3240 865 c0 -8 7 -15 15 -15 8 0 15 7 15 15 0 8 -7 15 -15 15 -8 0
-15 -7 -15 -15z"/>
</g>
</svg>
